<svg width="897" height="442" viewBox="0 0 897 442" fill="none" xmlns="http://www.w3.org/2000/svg">
<path opacity="0.04" d="M543.973 108.105L586.731 126.9L611.947 139.062C665.669 165.597 717.197 189.92 787.364 189.92C831.219 189.92 882.747 174.442 882.747 133.534C882.747 92.6262 827.929 63.8803 773.112 61.669C736.932 60.5634 707.33 68.3027 693.078 82.6757C689.99 85.4602 687.517 88.867 685.817 92.676C684.118 96.4849 683.229 100.611 683.21 104.788C683.238 110.957 685.59 116.885 689.788 121.372L697.463 128.006C701.848 130.217 700.752 133.534 699.656 134.639V136.851H696.367C690.885 137.956 684.307 131.323 682.114 129.111C675.38 122.354 671.458 113.258 671.15 103.682C671.178 97.0409 672.555 90.4755 675.195 84.3908C677.834 78.3061 681.682 72.831 686.499 68.3027C704.041 50.6129 736.932 40.6624 774.208 41.768C833.411 43.9792 897 78.2532 897 132.428C897 177.758 853.146 205.399 781.882 205.399C710.619 205.399 633.874 177.758 576.864 151.224L559.322 143.484C495.733 113.633 428.855 82.6757 327.991 82.6757C227.126 82.6757 92.2739 133.534 92.2739 245.201C92.2739 356.868 218.355 415.465 335.665 415.465C418.988 415.465 508.89 378.98 509.986 312.643C510.28 301.123 508.189 289.667 503.848 279.006C499.506 268.346 493.008 258.715 484.77 250.729C456.264 220.877 403.639 202.082 348.821 203.188C294.003 204.293 263.305 215.349 243.571 235.25C238.899 239.834 235.221 245.344 232.767 251.434C230.314 257.523 229.14 264.06 229.318 270.63C229.622 279.996 233.105 288.973 239.186 296.059C247.956 317.066 302.774 279.475 307.16 312.643C311.545 345.812 285.233 332.544 268.787 329.227H264.402L256.727 327.016H253.438C242.966 322.829 233.896 315.715 227.294 306.51C220.691 297.306 216.829 286.393 216.162 275.052C215.998 265.161 217.861 255.342 221.634 246.21C225.407 237.078 231.009 228.83 238.089 221.983C262.209 197.659 304.967 182.181 348.821 182.181C392.676 182.181 457.361 203.188 490.251 237.462C501.158 248.034 509.801 260.749 515.646 274.82C521.492 288.892 524.416 304.022 524.239 319.277C523.142 395.564 427.759 442 336.761 442C207.391 442 76.9248 377.874 76.9248 252.94C76.9248 128.006 206.295 69.4083 326.894 69.4083H343.34C5.6615 25.1838 8.95068 207.61 16.6252 256.257C-23.9401 16.3389 249.053 41.768 371.845 64.9859C50.6122 -33.4137 -25.0364 62.7746 -36 79.3588C52.8049 -83.1663 395.965 43.9792 543.973 108.105ZM16.6252 257.363L18.8179 269.524C17.8773 265.512 17.1454 261.452 16.6252 257.363Z" fill="#8D6847"/>
</svg>
