<svg width="20" height="20" viewBox="0 0 20 20" fill="none" xmlns="http://www.w3.org/2000/svg">
<path d="M8.00006 14.9922C9.70549 14.9922 11.2559 14.3876 12.4652 13.3643L17.8915 18.7907C18.0156 18.9147 18.1706 18.9767 18.3411 18.9767C18.5117 18.9767 18.6667 18.9147 18.7908 18.7907C19.0388 18.5426 19.0388 18.1395 18.7908 17.8915L13.3644 12.4651C14.3722 11.2558 14.9923 9.68992 14.9923 8C14.9923 4.13953 11.8605 1.00775 8.00006 1.00775C4.1551 1.00775 1.00781 4.15504 1.00781 8C1.00781 11.8605 4.1551 14.9922 8.00006 14.9922ZM8.00006 2.27907C11.1629 2.27907 13.721 4.85271 13.721 8C13.721 11.1628 11.1629 13.7209 8.00006 13.7209C4.83727 13.7209 2.27913 11.1473 2.27913 8C2.27913 4.85271 4.85277 2.27907 8.00006 2.27907Z" fill="#860708"/>
</svg>
