<svg width="134" height="38" viewBox="0 0 134 38" fill="none" xmlns="http://www.w3.org/2000/svg">
<g clip-path="url(#clip0)" filter="url(#filter0_d)">
<path d="M66.5713 21.7648C65.9824 23.5295 64.6573 23.5295 63.774 24.853C62.8906 26.1765 64.5101 28.6765 66.5713 26.9118C68.6324 28.8236 70.3992 26.4706 69.3686 24.853C68.338 23.2354 67.3074 23.5295 66.5713 21.7648Z" fill="#590303"/>
<path d="M66.5709 30.0001C67.0587 30.0001 67.4542 29.605 67.4542 29.1177C67.4542 28.6304 67.0587 28.2354 66.5709 28.2354C66.083 28.2354 65.6875 28.6304 65.6875 29.1177C65.6875 29.605 66.083 30.0001 66.5709 30.0001Z" fill="#590303"/>
<path d="M72.1666 12.5C68.7803 15.7353 68.3387 20 70.3998 21.9118C72.461 23.8236 79.5279 21.6177 76.8778 18.0883C76.9169 18.4198 76.8225 18.7532 76.6154 19.0152C76.4083 19.2772 76.1055 19.4463 75.7736 19.4853C75.4417 19.5243 75.1079 19.43 74.8456 19.2232C74.5833 19.0163 74.414 18.7139 74.375 18.3824C73.786 15.7353 78.2029 14.853 78.6445 18.8236C79.0862 22.7941 71.7249 26.0294 68.4859 21.0294C65.2469 16.0294 68.1914 12.6471 71.5776 10C74.9639 7.35297 86.742 4.7059 97.1951 8.82355C84.3864 4.85296 76.4361 8.23532 72.1666 12.5Z" fill="#590303"/>
<path d="M61.1243 12.5C64.5105 15.7353 64.9522 20 62.891 21.9118C60.8298 23.8236 53.7629 21.6177 56.413 18.0883C56.3937 18.2524 56.4069 18.4188 56.4519 18.5778C56.497 18.7369 56.5729 18.8855 56.6754 19.0152C56.8825 19.2772 57.1853 19.4463 57.5172 19.4853C57.8491 19.5243 58.1829 19.43 58.4452 19.2232C58.7075 19.0163 58.8768 18.7139 58.9159 18.3824C59.5048 15.7353 55.088 14.853 54.6463 18.8236C54.2046 22.7941 61.566 26.0294 64.8049 21.0294C68.0439 16.0294 65.0994 12.6471 61.7132 10C58.327 7.35297 46.5488 4.7059 36.0957 8.82355C48.9044 4.85296 56.8547 8.23532 61.1243 12.5Z" fill="#590303"/>
<path d="M66.5712 2.35293C66.2677 2.34739 65.9687 2.42717 65.7084 2.58319C65.4481 2.7392 65.2369 2.96516 65.099 3.23528C63.9211 5.29411 66.2768 7.79411 66.5712 10.7353C66.8657 7.79411 69.2213 5.29411 68.0435 3.23528C67.9056 2.96516 67.6944 2.7392 67.4341 2.58319C67.1737 2.42717 66.8748 2.34739 66.5712 2.35293Z" fill="#590303"/>
<path d="M4 6.17651C22.1089 18.6765 35.3593 1.32357 51.8487 4.11769C30.6481 -4.26467 21.8145 15.7353 4 6.17651Z" fill="#590303"/>
<path d="M63.6266 8.38236C60.2404 0.441187 55.2347 -1.17646 53.3207 0.882365C51.4068 2.94119 59.0626 2.64707 63.6266 8.38236Z" fill="#590303"/>
<path d="M129.29 6.17651C111.034 18.6765 97.9308 1.32357 81.4414 4.11769C102.495 -4.26467 111.476 15.7353 129.29 6.17651Z" fill="#590303"/>
<path d="M69.6631 8.38236C73.0493 0.441187 78.055 -1.17646 79.969 0.882365C81.8829 2.94119 74.2271 2.64707 69.6631 8.38236Z" fill="#590303"/>
</g>
<defs>
<filter id="filter0_d" x="0" y="0" width="133.143" height="38" filterUnits="userSpaceOnUse" color-interpolation-filters="sRGB">
<feFlood flood-opacity="0" result="BackgroundImageFix"/>
<feColorMatrix in="SourceAlpha" type="matrix" values="0 0 0 0 0 0 0 0 0 0 0 0 0 0 0 0 0 0 127 0"/>
<feOffset dy="4"/>
<feGaussianBlur stdDeviation="2"/>
<feColorMatrix type="matrix" values="0 0 0 0 0 0 0 0 0 0 0 0 0 0 0 0 0 0 0.25 0"/>
<feBlend mode="normal" in2="BackgroundImageFix" result="effect1_dropShadow"/>
<feBlend mode="normal" in="SourceGraphic" in2="effect1_dropShadow" result="shape"/>
</filter>
<clipPath id="clip0">
<rect width="125.143" height="30" fill="white" transform="translate(4)"/>
</clipPath>
</defs>
</svg>
