<svg width="38" height="36" viewBox="0 0 38 36" fill="none" xmlns="http://www.w3.org/2000/svg">
<path d="M4.07143 27.1428L21.7143 27.1428L21.7143 33.9285C21.7143 34.5269 22.1053 35.0544 22.6778 35.2273C23.2503 35.4009 23.8686 35.1796 24.2006 34.6819L29.2263 27.1428L33.9286 27.1428C36.177 27.1428 38 25.3198 38 23.0713L38 4.07135C38 1.82292 36.177 -8.0268e-05 33.9286 -8.04646e-05L4.07143 -8.30748e-05C1.823 -8.32713e-05 2.92543e-06 1.82291 2.72886e-06 4.07134L1.06783e-06 23.0713C8.71265e-07 25.3198 1.823 27.1428 4.07143 27.1428ZM2.71429 4.07135C2.71429 3.32187 3.32196 2.7142 4.07143 2.7142L33.9286 2.7142C34.6781 2.7142 35.2857 3.32187 35.2857 4.07135L35.2857 23.0713C35.2857 23.8208 34.678 24.4285 33.9286 24.4285L28.5 24.4285C28.0461 24.4285 27.6226 24.6551 27.3708 25.0322L24.4286 29.4502L24.4286 25.7856C24.4286 25.0362 23.8209 24.4285 23.0714 24.4285L4.07143 24.4285C3.32195 24.4285 2.71429 23.8208 2.71429 23.0713L2.71429 4.07135Z" fill="#590303"/>
<path d="M29.8574 20.3572L8.14314 20.3572L8.14314 17.6429L29.8574 17.6429L29.8574 20.3572Z" fill="#590303"/>
<path d="M29.8574 14.9285L8.14314 14.9285L8.14314 12.2142L29.8574 12.2142L29.8574 14.9285Z" fill="#590303"/>
<path d="M29.8574 9.5L8.14314 9.5L8.14314 6.78571L29.8574 6.78571L29.8574 9.5Z" fill="#590303"/>
</svg>
