<svg width="70" height="25" viewBox="0 0 70 25" fill="none" xmlns="http://www.w3.org/2000/svg">
<path d="M4.87198 2.10346C10.3811 -0.379879 17.9459 5.08346 17.1236 11.0435L16.8769 10.8779C15.9725 3.59346 8.98327 0.199566 3.80305 5.66291C3.09851 6.51443 2.64748 7.54913 2.50198 8.64762C2.3565 9.74612 2.52248 10.8636 2.98079 11.8712C4.70753 16.2585 9.88774 17.5829 13.999 17.9968C24.1128 18.9074 33.4043 10.6296 41.1335 5.33179C47.0538 1.27568 56.1808 -2.36655 62.9233 1.9379C64.4744 2.86487 65.8182 4.10495 66.8702 5.58013H66.9524C68.1471 6.09322 69.0975 7.05287 69.6036 8.25713C70.1097 9.46138 70.132 10.8163 69.6658 12.0368H69.5014C69.9125 8.97402 69.3369 5.49735 63.6634 5.91124C61.843 6.20416 60.0889 6.82081 58.4831 7.73235C55.2763 9.30513 52.3984 11.7057 49.4383 13.7751C44.4873 17.4189 39.1345 20.4743 33.4865 22.8807C25.0173 26.2746 13.4235 26.1918 7.58543 18.1624C7.42098 17.914 7.83211 18.1624 7.91433 18.2451C21.0704 31.9863 40.7224 15.1824 52.0695 7.81513C56.592 4.83513 61.6899 3.01401 66.7879 5.49735C65.0546 3.28603 62.5608 1.80922 59.7988 1.35846C56.4275 0.613454 52.974 1.77234 49.9317 3.01401C44.2581 5.49735 39.489 10.2157 34.4732 13.6924C26.3329 19.3213 16.2191 22.9635 7.00985 17.5001C0.678467 13.7751 -3.92617 6.15957 4.87198 2.10346Z" fill="#F2F2F2"/>
</svg>
