<svg width="126" height="30" viewBox="0 0 126 30" fill="none" xmlns="http://www.w3.org/2000/svg">
<g clip-path="url(#clip0)">
<path d="M62.5713 21.7646C61.9824 23.5294 60.6573 23.5294 59.774 24.8529C58.8906 26.1764 60.5101 28.6764 62.5713 26.9117C64.6324 28.8235 66.3992 26.4705 65.3686 24.8529C64.338 23.2352 63.3074 23.5294 62.5713 21.7646Z" fill="#8D6847"/>
<path d="M62.5709 30.0001C63.0587 30.0001 63.4542 29.605 63.4542 29.1177C63.4542 28.6304 63.0587 28.2354 62.5709 28.2354C62.083 28.2354 61.6875 28.6304 61.6875 29.1177C61.6875 29.605 62.083 30.0001 62.5709 30.0001Z" fill="#8D6847"/>
<path d="M68.1666 12.4999C64.7803 15.7352 64.3387 19.9999 66.3998 21.9117C68.461 23.8235 75.5279 21.6176 72.8778 18.0882C72.9169 18.4197 72.8225 18.7531 72.6154 19.0151C72.4083 19.2771 72.1055 19.4462 71.7736 19.4852C71.4417 19.5242 71.1079 19.4299 70.8456 19.2231C70.5833 19.0163 70.414 18.7138 70.375 18.3823C69.786 15.7352 74.2029 14.8529 74.6445 18.8235C75.0862 22.7941 67.7249 26.0293 64.4859 21.0293C61.2469 16.0293 64.1914 12.647 67.5776 9.99993C70.9639 7.35288 82.742 4.70581 93.1951 8.82346C80.3864 4.85287 72.4361 8.23522 68.1666 12.4999Z" fill="#8D6847"/>
<path d="M57.1243 12.4999C60.5105 15.7352 60.9522 19.9999 58.891 21.9117C56.8298 23.8235 49.7629 21.6176 52.413 18.0882C52.3937 18.2523 52.4069 18.4187 52.4519 18.5777C52.497 18.7368 52.5729 18.8854 52.6754 19.0151C52.8825 19.2771 53.1853 19.4462 53.5172 19.4852C53.8491 19.5242 54.1829 19.4299 54.4452 19.2231C54.7075 19.0163 54.8768 18.7138 54.9159 18.3823C55.5048 15.7352 51.088 14.8529 50.6463 18.8235C50.2046 22.7941 57.566 26.0293 60.8049 21.0293C64.0439 16.0293 61.0994 12.647 57.7132 9.99993C54.327 7.35288 42.5488 4.70581 32.0957 8.82346C44.9044 4.85287 52.8547 8.23522 57.1243 12.4999Z" fill="#8D6847"/>
<path d="M62.5712 2.35281C62.2677 2.34727 61.9687 2.42705 61.7084 2.58307C61.4481 2.73908 61.2369 2.96504 61.099 3.23516C59.9211 5.29398 62.2768 7.79399 62.5712 10.7352C62.8657 7.79399 65.2213 5.29398 64.0435 3.23516C63.9056 2.96504 63.6944 2.73908 63.4341 2.58307C63.1737 2.42705 62.8748 2.34727 62.5712 2.35281Z" fill="#8D6847"/>
<path d="M0 6.17648C18.1089 18.6765 31.3593 1.32354 47.8487 4.11766C26.6481 -4.2647 17.8145 15.7353 0 6.17648Z" fill="#8D6847"/>
<path d="M59.6266 8.3823C56.2404 0.441125 51.2347 -1.17652 49.3207 0.882304C47.4068 2.94113 55.0626 2.64701 59.6266 8.3823Z" fill="#8D6847"/>
<path d="M125.29 6.17648C107.034 18.6765 93.9308 1.32354 77.4414 4.11766C98.4949 -4.2647 107.476 15.7353 125.29 6.17648Z" fill="#8D6847"/>
<path d="M65.6631 8.3823C69.0493 0.441125 74.055 -1.17652 75.969 0.882304C77.8829 2.94113 70.2271 2.64701 65.6631 8.3823Z" fill="#8D6847"/>
</g>
<defs>
<clipPath id="clip0">
<rect width="125.143" height="30" fill="white"/>
</clipPath>
</defs>
</svg>
