<svg width="71" height="36" viewBox="0 0 71 36" fill="none" xmlns="http://www.w3.org/2000/svg">
<g clip-path="url(#clip0)">
<path d="M29.6532 1.94348e-05C37.672 -0.338009 45.3567 1.52115 53.2085 3.63382C57.9696 4.90143 61.5614 5.15495 65.4873 2.95777C65.9049 2.78875 65.7379 2.95777 65.7379 2.95777C61.979 5.91551 56.9673 5.7465 52.4567 5.23946C46.5261 4.64791 41.0967 2.87326 35.0826 1.69016C28.7343 0.422555 23.9732 1.09861 21.4673 1.43664C21.2167 1.43664 21.0496 1.26763 21.4673 1.18312C24.0567 0.591569 27.0637 0.169034 29.6532 1.94348e-05Z" fill="#8D6847"/>
<path d="M29.2356 6.08459C30.2379 6.2536 31.1568 6.42261 32.1591 6.67614C40.5121 8.6198 48.2803 11.493 56.6332 11.8311C64.6521 12.0846 68.3274 9.04233 70.8332 6.92966C70.9168 6.84515 71.0838 6.92966 71.0003 7.09867C68.745 9.63388 65.9885 11.2395 62.6474 12.1691C51.0368 15.2113 38.6744 10.9015 27.0638 8.02825C19.7132 6.2536 7.51794 6.2536 2.17206 16.0564C-1.67029 23.155 1.83794 30.5916 6.68265 33.2959C11.5274 36.0846 17.4579 36.0001 21.5509 34.2254C24.9756 32.6198 27.1474 30.5071 27.3144 30.4226C27.6485 30.2536 27.8991 30.3381 27.565 30.5916C25.5603 32.2818 23.6391 33.6339 21.7179 34.5635C14.4509 37.8592 6.51559 35.2395 2.8403 30.6761C-1.67029 25.0142 -0.50088 17.0705 4.42736 12.1691C13.1144 3.54937 25.5603 5.49304 29.2356 6.08459Z" fill="#8D6847"/>
<path d="M25.894 13.2676C33.4952 14.9577 40.3446 16.9014 47.8622 17.2394C47.9457 17.2394 47.9457 17.4084 47.8622 17.4084C42.934 17.9155 38.2563 17.4084 33.4116 16.9859C29.1516 16.5634 25.1422 15.8028 20.7987 14.8732C15.4528 13.7746 8.18575 14.3662 6.51516 20.6197C6.51516 20.7042 6.26457 20.7887 6.3481 20.5352C6.93281 17.3239 9.93987 15.1267 12.4457 13.9436C16.6222 12.0845 21.2999 12.2535 25.894 13.2676Z" fill="#8D6847"/>
</g>
<defs>
<clipPath id="clip0">
<rect width="71" height="36" fill="white"/>
</clipPath>
</defs>
</svg>
