<svg width="60" height="62" viewBox="0 0 60 62" fill="none" xmlns="http://www.w3.org/2000/svg">
<g clip-path="url(#clip0)">
<path d="M59.5508 27.6931L56.459 20.652C55.3457 18.1484 52.9263 16.5409 50.2598 16.5333H5.93018C2.65625 16.5369 0.00341798 19.2781 0 22.6612V37.975C0.0024414 39.8287 1.45605 41.3308 3.25 41.3333H8.1001C8.57324 43.7416 10.6221 45.4717 13 45.4717C15.3779 45.4717 17.4268 43.7416 17.8999 41.3333H42.1001C42.5732 43.7416 44.6221 45.4717 47 45.4717C49.3779 45.4717 51.4268 43.7416 51.8999 41.3333H57.2202C58.7549 41.3318 59.9985 40.0467 60 38.4609V29.8324C60.0005 29.0943 59.8472 28.3647 59.5508 27.6931ZM57.3828 27.7607L48 26.9494V22.6092L54.7422 21.7383L57.3828 27.7607ZM13 43.4C11.3433 43.4 10 42.012 10 40.3C10 38.588 11.3433 37.2 13 37.2C14.6567 37.2 16 38.588 16 40.3C16 42.012 14.6567 43.4 13 43.4ZM47 43.4C45.3433 43.4 44 42.012 44 40.3C44 38.588 45.3433 37.2 47 37.2C48.6567 37.2 50 38.588 50 40.3C50 42.012 48.6567 43.4 47 43.4ZM57.2202 39.2667H51.8999C51.4268 36.8584 49.3779 35.1283 47 35.1283C44.6221 35.1283 42.5732 36.8584 42.1001 39.2667H17.8999C17.4268 36.8584 15.3779 35.1283 13 35.1283C10.6221 35.1283 8.57324 36.8584 8.1001 39.2667H3.25C2.56006 39.2656 2.00098 38.6879 2 37.975V22.6612C2.00244 20.4189 3.76025 18.6025 5.93018 18.6H50.2598C51.4229 18.6025 52.5454 19.0395 53.4209 19.8296L46.938 20.6667H8C7.44775 20.6667 7 21.1293 7 21.7V27.9C7 28.4706 7.44775 28.9333 8 28.9333H46.958L58 29.8839V38.4609C57.9995 38.9054 57.6504 39.2662 57.2202 39.2667ZM9 26.8667V22.7333H16V26.8667H9ZM18 22.7333H26V26.8667H18V22.7333ZM28 22.7333H35V26.8667H28V22.7333ZM37 22.7333H46V26.8667H37V22.7333Z" fill="#8D6847"/>
</g>
<defs>
<clipPath id="clip0">
<rect width="60" height="62" fill="white"/>
</clipPath>
</defs>
</svg>
