<svg width="55" height="57" viewBox="0 0 55 57" fill="none" xmlns="http://www.w3.org/2000/svg">
<g clip-path="url(#clip0)">
<path d="M40.842 21.2434C40.4409 21.5012 39.9092 21.3733 39.6606 20.9576C39.4116 20.5421 39.5352 19.9911 39.9361 19.7332L53.6832 10.8221C54.0842 10.5624 54.6139 10.6922 54.8646 11.1078C54.9524 11.2544 54.9936 11.4158 54.9936 11.5773H54.9955V45.4257C54.9955 45.7597 54.8166 46.0509 54.5533 46.2049L39.1395 56.8525C38.8834 57.0287 38.5685 57.0415 38.307 56.9173V56.9192L16.4055 46.4403L1.33906 56.8505C0.945207 57.1234 0.409917 57.012 0.148518 56.604C0.0357445 56.4276 -0.0090053 56.2255 0.00707946 56.0307L0.0178625 22.4994C0.0178625 22.1747 0.186168 21.8909 0.438582 21.7368L0.436785 21.735L12.4545 14.3768C12.8609 14.1282 13.3873 14.2673 13.6289 14.6885C13.8687 15.1114 13.7345 15.6569 13.3263 15.9055L1.72941 23.0077L1.71871 54.4479L15.8489 44.6834L15.8507 44.6853C16.0906 44.5183 16.4056 44.483 16.6849 44.6166L38.5916 55.0937L53.2768 44.9507V13.1819L40.842 21.2434Z" fill="#8D6847"/>
<path d="M27.4979 0C30.8187 0 33.8263 1.39699 36.0031 3.65308L36.0049 3.65494L36.0068 3.65308C38.1837 5.9073 39.5299 9.02797 39.5299 12.4714C39.5299 15.9612 37.6485 20.1079 35.2673 24.0078C32.9239 27.8483 30.115 31.4365 28.1601 33.9095C27.8593 34.2899 27.317 34.3456 26.9517 34.034C26.8873 33.9783 26.8318 33.9152 26.787 33.8466C24.8231 31.3621 22.0321 27.7889 19.721 24.0023C17.3418 20.1005 15.4639 15.9558 15.4639 12.4696C15.4639 9.02611 16.8119 5.9073 18.9871 3.65131C21.1659 1.39699 24.1753 0 27.4979 0ZM34.7947 4.91103C32.9276 2.97968 30.3479 1.783 27.4997 1.783C24.6514 1.783 22.0717 2.97968 20.2063 4.91289C18.3408 6.84611 17.1844 9.51959 17.1844 12.4696C17.1844 15.5698 18.9442 19.3992 21.1731 23.056C23.2032 26.3826 25.6235 29.5589 27.4961 31.9411C29.3722 29.5532 31.7997 26.3695 33.8209 23.0596C36.0515 19.4066 37.8131 15.5735 37.8131 12.4695C37.8131 9.51772 36.6584 6.84415 34.7931 4.91094L34.7947 4.91103Z" fill="#8D6847"/>
<path d="M27.4975 7.12622C28.9207 7.12622 30.2132 7.72549 31.1442 8.69205V8.69578C32.0768 9.66243 32.6551 11.0001 32.6551 12.4713C32.6551 13.9426 32.0766 15.2803 31.1442 16.2469L31.1406 16.2506C30.2078 17.2171 28.9171 17.8164 27.4975 17.8164C26.0743 17.8164 24.7817 17.2171 23.8507 16.2506C22.9181 15.2858 22.3398 13.9463 22.3398 12.4712C22.3398 10.9981 22.9181 9.66224 23.8507 8.69568V8.69196C24.7836 7.72558 26.0742 7.12622 27.4975 7.12622ZM29.9303 9.95001L29.9285 9.95196C29.3073 9.30818 28.4462 8.90932 27.4973 8.90932C26.5485 8.90932 25.6874 9.30818 25.0662 9.95196L25.0644 9.95001C24.4449 10.5957 24.06 11.4862 24.06 12.4714C24.06 13.4547 24.4449 14.3472 25.0662 14.9909C25.6874 15.6347 26.5485 16.0336 27.4973 16.0336C28.4462 16.0336 29.3054 15.6365 29.9285 14.9946L29.932 14.9909C30.5515 14.347 30.9345 13.4546 30.9345 12.4713C30.9365 11.4862 30.5515 10.5938 29.9303 9.95001Z" fill="#8D6847"/>
<path d="M39.5247 56.1104C39.5247 56.6001 39.1416 56.9971 38.6692 56.9971C38.1965 56.9971 37.8135 56.6 37.8135 56.1104L37.8171 24.0486C37.8171 23.5587 38.2003 23.1617 38.6727 23.1617C39.1454 23.1617 39.5283 23.5588 39.5283 24.0486L39.5247 56.1104Z" fill="#8D6847"/>
<path d="M17.1773 45.036C17.1773 45.5259 16.7942 45.9228 16.3215 45.9228C15.849 45.9228 15.4658 45.5258 15.4658 45.036L15.4712 24.0468C15.4712 23.5569 15.8543 23.1599 16.3268 23.1599C16.7995 23.1599 17.1826 23.5569 17.1826 24.0468L17.1773 45.036Z" fill="#8D6847"/>
</g>
<defs>
<clipPath id="clip0">
<rect width="55" height="57" fill="white"/>
</clipPath>
</defs>
</svg>
