<svg width="55" height="57" viewBox="0 0 55 57" fill="none" xmlns="http://www.w3.org/2000/svg">
<path d="M45.6006 9.11072C45.0076 9.11072 44.5264 9.60947 44.5264 10.224C44.5264 10.8385 45.0076 11.3373 45.6006 11.3373C46.1936 11.3373 46.6748 10.8385 46.6748 10.224C46.6748 9.60936 46.1936 9.11072 45.6006 9.11072Z" fill="#8D6847"/>
<path d="M51.182 7.98896C48.6184 5.0028 45.0625 3.35827 41.1694 3.35827C36.9124 3.35827 33.0278 5.06838 29.9359 8.30379C28.8607 9.42876 28.0571 10.5527 27.5 11.4447C26.9429 10.5528 26.1393 9.42899 25.0641 8.30379C21.9722 5.06827 18.0877 3.35815 13.8306 3.35815C5.68197 3.35815 0 10.4231 0 18.8229C0 30.1692 11.602 39.7228 26.7965 53.3698C26.9983 53.5511 27.2492 53.6417 27.5 53.6417C27.7508 53.6417 28.0017 53.5511 28.2035 53.3698C43.4342 39.6902 55 30.1534 55 18.8229C55 14.7043 53.6441 10.8568 51.182 7.98896ZM27.5 51.0558C13.1518 38.188 2.14844 28.946 2.14844 18.8229C2.14844 11.2759 7.17062 5.58483 13.8306 5.58483C17.5285 5.58483 20.7766 7.00827 23.4847 9.81541C25.5478 11.954 26.5104 14.1366 26.5199 14.1584C26.6927 14.5578 27.0759 14.8143 27.4984 14.8152C27.499 14.8152 27.4998 14.8152 27.5004 14.8152C27.9228 14.8152 28.3065 14.5577 28.4802 14.1584C28.4897 14.1366 29.4523 11.9541 31.5154 9.81541C34.2234 7.00816 37.4715 5.58483 41.1695 5.58483C47.8295 5.58483 52.8517 11.2759 52.8517 18.8229C52.8516 29.1746 41.1222 38.8392 27.5 51.0558Z" fill="#8D6847"/>
<path d="M49.3575 13.0767C49.082 12.5321 48.4326 12.3223 47.9073 12.6078C47.3819 12.8933 47.1793 13.5662 47.4549 14.1107C48.164 15.512 48.5544 17.1855 48.5544 18.8229C48.5544 22.0398 47.0771 25.4541 43.905 29.5679C43.5346 30.0482 43.6101 30.7488 44.0735 31.1327C44.54 31.519 45.2153 31.4353 45.5834 30.958C49.0761 26.4283 50.7029 22.5722 50.7029 18.8229C50.7029 16.8029 50.2376 14.816 49.3575 13.0767Z" fill="#8D6847"/>
<path d="M37.8125 24.6967H31.7969V18.4623C31.7969 17.8474 31.3159 17.349 30.7227 17.349H24.2773C23.6841 17.349 23.2031 17.8474 23.2031 18.4623V24.6967H17.1875C16.5942 24.6967 16.1133 25.1951 16.1133 25.8099V32.4896C16.1133 33.1045 16.5942 33.6029 17.1875 33.6029H23.2031V39.8373C23.2031 40.4521 23.6841 40.9506 24.2773 40.9506H30.7227C31.3159 40.9506 31.7969 40.4521 31.7969 39.8373V33.6029H37.8125C38.4058 33.6029 38.8867 33.1045 38.8867 32.4896V25.8099C38.8867 25.1951 38.4058 24.6967 37.8125 24.6967ZM36.7383 31.3762H30.7227C30.1294 31.3762 29.6484 31.8746 29.6484 32.4895V38.7239H25.3516V32.4895C25.3516 31.8746 24.8706 31.3762 24.2773 31.3762H18.2617V26.9231H24.2773C24.8706 26.9231 25.3516 26.4247 25.3516 25.8098V19.5755H29.6484V25.8098C29.6484 26.4247 30.1294 26.9231 30.7227 26.9231H36.7383V31.3762Z" fill="#8D6847"/>
</svg>
