<svg width="59" height="59" viewBox="0 0 59 59" fill="none" xmlns="http://www.w3.org/2000/svg">
<path d="M45.6834 56.9265L39.4946 50.7369C39.2784 50.5208 38.9854 50.3994 38.6798 50.3994C38.6792 50.3994 38.6786 50.3994 38.6782 50.3994L35.3577 50.4041C35.3504 50.4041 35.3432 50.4041 35.3359 50.4041C33.503 50.4041 31.6668 50.067 29.9483 49.4239L31.9409 48.0878C32.7565 47.5409 33.3049 46.7081 33.4852 45.7428C33.6655 44.7773 33.4546 43.8027 32.8913 42.9981C32.1909 41.9979 31.063 41.4549 29.9146 41.4549C29.8959 41.4549 29.8773 41.455 29.8585 41.4553L34.4481 36.8657C35.8405 35.4732 35.8405 33.2074 34.4481 31.8149C34.1093 31.4762 33.7144 31.214 33.2844 31.0368C33.6031 30.4949 33.7736 29.876 33.7736 29.2308C33.7736 28.2769 33.402 27.3799 32.7276 26.7053C32.053 26.0308 31.1561 25.6592 30.2021 25.6592C29.5569 25.6592 28.9381 25.8298 28.3961 26.1485C28.2189 25.7185 27.9568 25.3236 27.618 24.9847C26.9434 24.3101 26.0465 23.9386 25.0925 23.9386C24.1385 23.9386 23.2416 24.3101 22.567 24.9847L20.919 26.6326C20.7438 26.2465 20.4994 25.8906 20.1905 25.5817C19.516 24.9071 18.6191 24.5357 17.6651 24.5357C16.711 24.5357 15.8142 24.9072 15.1396 25.5817L14.4091 26.3122L11.4394 23.3592C10.5768 22.4965 10.5768 21.0929 11.4394 20.2302C12.2475 19.4221 13.5303 19.3711 14.3984 20.0769L17.2744 22.9531C17.4995 23.1781 17.7943 23.2906 18.0892 23.2906C18.3841 23.2906 18.6791 23.178 18.9041 22.9531C19.354 22.5031 19.354 21.7734 18.9041 21.3234L13.9425 16.3619C13.0799 15.4991 13.0799 14.0955 13.9425 13.2328C14.8052 12.3701 16.209 12.3702 17.0716 13.2328L25.7645 21.9425C25.9896 22.1675 26.2845 22.28 26.5794 22.28C26.8742 22.28 27.1692 22.1674 27.3942 21.9425C27.8442 21.4925 27.8442 20.7628 27.3942 20.3128L20.7868 13.6886C20.0809 12.8204 20.132 11.5377 20.94 10.7297C21.8028 9.86706 23.2066 9.86706 24.0691 10.7297L26.4899 13.1507C26.94 13.6008 27.6697 13.6008 28.1196 13.1507C28.5696 12.7007 28.5697 11.971 28.1196 11.521L25.6987 9.10006C23.9374 7.33882 21.0716 7.33894 19.3104 9.10006C18.7283 9.68211 18.34 10.385 18.1426 11.1286C17.3796 10.5781 16.4665 10.2802 15.5071 10.2802C14.3004 10.2802 13.1661 10.7501 12.3129 11.6032C10.7275 13.1886 10.5701 15.6685 11.8388 17.4328C11.0951 17.6301 10.3919 18.0185 9.80976 18.6007C8.14762 20.2629 8.05497 22.9084 9.53009 24.6812C8.80284 24.8821 8.11616 25.2666 7.54563 25.8372C5.78451 27.5984 5.78451 30.4642 7.54563 32.2255L8.05993 32.7398C6.11534 35.0747 5.05853 37.9879 5.06291 41.0644L5.06567 42.9731L0.337493 47.7016C-0.112498 48.1516 -0.112498 48.8813 0.337493 49.3314C0.562545 49.5563 0.85743 49.6689 1.15232 49.6689C1.4472 49.6689 1.7422 49.5563 1.96714 49.3314L7.03353 44.2649C7.25006 44.0483 7.37151 43.7545 7.37105 43.4483L7.3676 41.0612C7.36345 38.1972 8.47673 35.5043 10.502 33.479L16.2206 27.7603C16.2206 27.7603 16.2206 27.7602 16.2207 27.7602L16.7692 27.2117C17.0085 26.9723 17.3265 26.8406 17.6649 26.8406C18.0034 26.8406 18.3214 26.9723 18.5607 27.2117C18.8 27.4509 18.9317 27.769 18.9317 28.1074C18.9317 28.3979 18.834 28.6732 18.6549 28.8968L17.1316 30.42C16.6816 30.87 16.6816 31.5997 17.1316 32.0498C17.1327 32.0508 17.1338 32.0516 17.1347 32.0527C17.1358 32.0537 17.1366 32.0548 17.1376 32.0558C17.3627 32.2807 17.6576 32.3933 17.9525 32.3933C18.2473 32.3933 18.5423 32.2807 18.7673 32.0558L24.1964 26.6145C24.4357 26.3752 24.7537 26.2435 25.0921 26.2435C25.4306 26.2435 25.7486 26.3753 25.9879 26.6145C26.4476 27.0743 26.4789 27.8024 26.0825 28.2993L20.5526 33.8412C20.1026 34.2912 20.1026 35.0209 20.5526 35.471C20.7777 35.6959 21.0725 35.8085 21.3674 35.8085C21.6623 35.8085 21.9573 35.6959 22.1822 35.471L29.3059 28.3352C29.5451 28.0959 29.8632 27.9642 30.2016 27.9642C30.5401 27.9642 30.8581 28.096 31.0974 28.3352C31.5912 28.8291 31.5912 29.6328 31.0974 30.1266L23.9617 37.2502C23.5117 37.7002 23.5116 38.4299 23.9617 38.88C24.4118 39.3298 25.1415 39.33 25.5913 38.88L31.1334 33.3501C31.6302 32.9536 32.3582 32.9848 32.818 33.4448C33.3119 33.9386 33.3119 34.7424 32.818 35.2361L25.038 43.0164C24.4899 43.5644 24.4392 44.4047 24.9176 45.0145C25.3958 45.6243 26.2241 45.7754 26.8869 45.3735L29.2374 43.9487C29.8299 43.5893 30.6054 43.7525 31.0029 44.3203C31.2081 44.6133 31.2848 44.9683 31.2192 45.32C31.1535 45.6714 30.9538 45.9747 30.6568 46.1738L25.219 49.8203C23.4496 51.0069 21.3891 51.6337 19.2589 51.6337C19.2539 51.6337 19.2487 51.6337 19.2438 51.6337L15.5504 51.6283C15.5498 51.6283 15.5494 51.6283 15.5488 51.6283C15.2432 51.6283 14.95 51.7498 14.734 51.9659L9.66744 57.0324C9.21745 57.4824 9.21745 58.212 9.66744 58.6621C9.8925 58.8871 10.1874 58.9997 10.4823 58.9997C10.7772 58.9997 11.0722 58.8871 11.2971 58.6621L16.0254 53.9338L19.2405 53.9384C19.2466 53.9384 19.2525 53.9384 19.2587 53.9384C21.8475 53.9384 24.3522 53.1765 26.5025 51.7346L27.6669 50.9538C30.0464 52.102 32.6938 52.7091 35.3353 52.7091C35.3435 52.7091 35.3521 52.7091 35.3604 52.7091L38.2026 52.7051L44.0537 58.5562C44.2788 58.7812 44.5737 58.8938 44.8686 58.8938C45.1634 58.8938 45.4584 58.7812 45.6834 58.5562C46.1334 58.1062 46.1334 57.3766 45.6834 56.9265ZM12.0253 28.6965C12.0251 28.6966 12.0251 28.6966 12.025 28.6967L9.65051 31.0712L9.17539 30.5961C8.31275 29.7334 8.31275 28.3297 9.17539 27.467C9.98353 26.6589 11.2663 26.608 12.1344 27.3138L12.7712 27.9506L12.0253 28.6965Z" fill="#8D6847"/>
<path d="M58.6624 43.9482C58.448 43.7327 58.1507 43.6106 57.8477 43.6106C57.5446 43.6106 57.2473 43.7327 57.0329 43.9482C56.8186 44.1626 56.6953 44.4587 56.6953 44.7629C56.6953 45.066 56.8186 45.3633 57.0329 45.5775C57.2473 45.7919 57.5446 45.9153 57.8477 45.9153C58.1507 45.9153 58.448 45.792 58.6624 45.5775C58.8767 45.362 59 45.066 59 44.7629C59 44.4586 58.8767 44.1626 58.6624 43.9482Z" fill="#8D6847"/>
<path d="M55.5636 40.8492L52.8111 38.0967L52.8178 33.4376C52.8228 29.9174 51.7892 26.5114 49.8286 23.5877L44.7566 16.0239C44.0638 14.9907 43.0088 14.296 41.7861 14.0676C40.5632 13.8392 39.3287 14.1064 38.3098 14.82C36.6403 15.989 35.9764 18.0983 36.5668 19.968L33.5551 16.9563C33.1052 16.5064 32.3755 16.5064 31.9254 16.9563C31.4754 17.4063 31.4754 18.1359 31.9254 18.586L38.3951 25.0558C38.9936 25.6543 39.9117 25.7097 40.5778 25.1871C41.2438 24.6647 41.4088 23.76 40.9699 23.0359L38.9879 19.7665C38.3656 18.74 38.6484 17.3965 39.6317 16.708C40.1392 16.3527 40.7544 16.2196 41.363 16.3333C41.972 16.4471 42.4973 16.7931 42.8423 17.3076L47.9144 24.8714C49.6188 27.4132 50.5174 30.3742 50.513 33.4343L50.5058 38.5717C50.5053 38.8779 50.6268 39.1717 50.8433 39.3883L53.934 42.479C54.159 42.7039 54.4539 42.8165 54.7488 42.8165C55.0437 42.8165 55.3387 42.7039 55.5636 42.479C56.0136 42.029 56.0136 41.2993 55.5636 40.8492Z" fill="#8D6847"/>
<path d="M30.846 14.2478C30.6328 14.0335 30.3355 13.9102 30.0324 13.9102C29.7282 13.9102 29.432 14.0335 29.2165 14.2478C29.0022 14.4621 28.8789 14.7594 28.8789 15.0625C28.8789 15.3667 29.0022 15.6629 29.2165 15.8772C29.432 16.0915 29.7282 16.2149 30.0324 16.2149C30.3355 16.2149 30.6316 16.0915 30.846 15.8772C31.0614 15.6629 31.1847 15.3656 31.1847 15.0625C31.1847 14.7594 31.0614 14.4621 30.846 14.2478Z" fill="#8D6847"/>
<path d="M41.5403 32.1301C41.9902 31.6801 41.9902 30.9505 41.5403 30.5004C41.0903 30.0505 40.3606 30.0505 39.9105 30.5004L39.4079 31.003C37.256 33.155 37.256 36.6565 39.4079 38.8084C39.6329 39.0334 39.9278 39.1459 40.2227 39.1459C40.5176 39.1459 40.8126 39.0334 41.0375 38.8084C41.4875 38.3584 41.4876 37.6288 41.0375 37.1787C39.7842 35.9254 39.7842 33.886 41.0375 32.6327L41.5403 32.1301Z" fill="#8D6847"/>
<path d="M55.0015 6.2229C54.2689 6.2229 53.5529 6.43078 52.9337 6.81094C52.3145 6.43078 51.5985 6.2229 50.8659 6.2229C48.661 6.2229 46.8672 8.0496 46.8672 10.2947C46.8672 11.5671 47.782 13.0952 49.664 14.9667C50.9312 16.2266 52.1811 17.1856 52.2338 17.2258C52.4403 17.3838 52.687 17.4627 52.9337 17.4627C53.1804 17.4627 53.427 17.3838 53.6336 17.2258C53.6863 17.1856 54.9362 16.2265 56.2034 14.9667C58.0854 13.0954 59.0002 11.5671 59.0002 10.2947C59.0002 8.04948 57.2064 6.2229 55.0015 6.2229ZM52.9334 14.8362C51.0076 13.2368 49.1719 11.196 49.1719 10.2947C49.1719 9.32028 49.9318 8.52759 50.8659 8.52759C51.3306 8.52759 51.7641 8.72014 52.0867 9.07C52.305 9.30646 52.612 9.44094 52.9337 9.44094C53.2554 9.44094 53.5625 9.30646 53.7807 9.07C54.1033 8.72026 54.5368 8.52759 55.0015 8.52759C55.9356 8.52759 56.6955 9.32028 56.6955 10.2947C56.6955 11.1936 54.8593 13.235 52.9334 14.8362Z" fill="#8D6847"/>
<path d="M8.13428 0.000854498C7.40173 0.000854498 6.68567 0.208737 6.06651 0.588895C5.44736 0.208737 4.73129 0.000854498 3.99875 0.000854498C1.79385 0.000739263 0 1.82732 0 4.07255C0 5.34496 0.914846 6.87309 2.79685 8.74449C4.06397 10.0045 5.31403 10.9636 5.36658 11.0038C5.57308 11.1618 5.8198 11.2407 6.06651 11.2407C6.31323 11.2407 6.55983 11.1618 6.76645 11.0038C6.81911 10.9636 8.06906 10.0045 9.33617 8.74461C11.2182 6.8732 12.133 5.34508 12.133 4.07266C12.133 1.82744 10.3392 0.000854498 8.13428 0.000854498ZM6.06617 8.61405C4.14026 7.0146 2.30469 4.97391 2.30469 4.07255C2.30469 3.09812 3.06466 2.30543 3.99875 2.30543C4.46337 2.30543 4.89688 2.49798 5.21954 2.84783C5.43779 3.0843 5.74478 3.21877 6.06651 3.21877C6.38825 3.21877 6.69535 3.0843 6.91349 2.84783C7.23614 2.4981 7.66965 2.30543 8.13428 2.30543C9.06837 2.30543 9.82834 3.09812 9.82834 4.07255C9.82834 4.97137 7.99208 7.01287 6.06617 8.61405Z" fill="#8D6847"/>
</svg>
