<svg width="50" height="52" viewBox="0 0 50 52" fill="none" xmlns="http://www.w3.org/2000/svg">
<path d="M36.9819 4.03445C36.581 1.99121 34.8405 0.448242 32.7586 0.448242C32.2828 0.448242 31.8966 0.849001 31.8966 1.34479C31.8966 1.84059 32.2828 2.24135 32.7586 2.24135C34.1845 2.24135 35.3448 3.4481 35.3448 4.931C35.3448 6.4139 34.1845 7.62066 32.7586 7.62066C32.2828 7.62066 31.8966 8.02141 31.8966 8.51721C31.8966 9.013 32.2828 9.41376 32.7586 9.41376C34.8397 9.41376 36.581 7.87079 36.9819 5.82755H48.2759V12.1034H37.931H36.2069H25.8621H24.1379H13.7931H12.069H1.72414V5.82755H13.7931H16.3793C16.8552 5.82755 17.2414 5.42679 17.2414 4.931C17.2414 4.43521 16.8552 4.03445 16.3793 4.03445H14.8138C15.1707 2.99266 16.119 2.24135 17.2414 2.24135C18.6672 2.24135 19.8276 3.4481 19.8276 4.931C19.8276 6.4139 18.6672 7.62066 17.2414 7.62066C16.7655 7.62066 16.3793 8.02141 16.3793 8.51721C16.3793 9.013 16.7655 9.41376 17.2414 9.41376C19.6181 9.41376 21.5517 7.40279 21.5517 4.931C21.5517 2.45921 19.6181 0.448242 17.2414 0.448242C15.1603 0.448242 13.419 1.99121 13.0181 4.03445H0V12.1034V14.7931V24.6551V26.4482V37.2069V39V51.5517H12.069H13.7931H24.1379H25.8621H36.2069H37.931H50V39V37.2069V26.4482V24.6551V14.7931V12.1034V4.03445H36.9819ZM25.8621 13.8965H36.2069V24.6551H25.8621V13.8965ZM36.2069 37.2069H25.8621V26.4482H36.2069V37.2069ZM13.7931 26.4482H24.1379V37.2069H13.7931V26.4482ZM13.7931 13.8965H24.1379V24.6551H13.7931V13.8965ZM1.72414 14.7931V13.8965H12.069V24.6551H1.72414V14.7931ZM1.72414 26.4482H12.069V37.2069H1.72414V26.4482ZM1.72414 49.7586V39H12.069V49.7586H1.72414ZM13.7931 49.7586V39H24.1379V49.7586H13.7931ZM25.8621 49.7586V39H36.2069V49.7586H25.8621ZM48.2759 49.7586H37.931V39H48.2759V49.7586ZM48.2759 37.2069H37.931V26.4482H48.2759V37.2069ZM37.931 24.6551V13.8965H48.2759V14.7931V24.6551H37.931Z" fill="#8D6847"/>
<path d="M22.4138 2.24135C23.8397 2.24135 25 3.4481 25 4.931C25 6.4139 23.8397 7.62066 22.4138 7.62066C21.938 7.62066 21.5518 8.02141 21.5518 8.51721C21.5518 9.013 21.938 9.41376 22.4138 9.41376C24.7906 9.41376 26.7242 7.40279 26.7242 4.931C26.7242 2.45921 24.7906 0.448242 22.4138 0.448242C21.938 0.448242 21.5518 0.849001 21.5518 1.34479C21.5518 1.84059 21.938 2.24135 22.4138 2.24135Z" fill="#8D6847"/>
<path d="M27.5867 2.24135C29.0125 2.24135 30.1729 3.4481 30.1729 4.931C30.1729 6.4139 29.0125 7.62066 27.5867 7.62066C27.1108 7.62066 26.7246 8.02141 26.7246 8.51721C26.7246 9.013 27.1108 9.41376 27.5867 9.41376C29.9634 9.41376 31.897 7.40279 31.897 4.931C31.897 2.45921 29.9634 0.448242 27.5867 0.448242C27.1108 0.448242 26.7246 0.849001 26.7246 1.34479C26.7246 1.84059 27.1108 2.24135 27.5867 2.24135Z" fill="#8D6847"/>
<path d="M26.9764 36.0477C27.1445 36.2225 27.3652 36.3103 27.5859 36.3103C27.8066 36.3103 28.0273 36.2225 28.1954 36.0477L31.0342 33.0953L33.873 36.0477C34.0411 36.2225 34.2618 36.3103 34.4825 36.3103C34.7032 36.3103 34.9239 36.2225 35.092 36.0477C35.429 35.6971 35.429 35.1305 35.092 34.7799L32.2532 31.8276L35.092 28.8752C35.429 28.5247 35.429 27.9581 35.092 27.6075C34.7549 27.257 34.2101 27.257 33.873 27.6075L31.0342 30.5599L28.1954 27.6075C27.8583 27.257 27.3135 27.257 26.9764 27.6075C26.6394 27.9581 26.6394 28.5247 26.9764 28.8752L29.8152 31.8276L26.9764 34.7799C26.6394 35.1305 26.6394 35.6971 26.9764 36.0477Z" fill="#8D6847"/>
</svg>
