<svg width="60" height="60" viewBox="0 0 60 60" fill="none" xmlns="http://www.w3.org/2000/svg">
<path d="M59.7567 58.114L53.4363 49.8917C53.2395 49.6349 52.9452 49.4714 52.6229 49.4394C48.335 49.0141 46.0458 48.1037 44.2056 47.3717C42.5778 46.7244 40.895 46.0552 38.7234 46.0552C35.4156 46.0552 32.8869 47.8189 31.1717 49.818V49.7745C32.127 47.5717 34.6736 44.0959 38.6296 44.0959C40.3315 44.0959 41.6567 44.6233 43.1925 45.2339C44.4738 45.7434 46.0687 46.3779 48.4 46.8677C49.0336 47.0009 49.6548 46.5953 49.788 45.9618C49.9207 45.3287 49.5152 44.7071 48.8821 44.5743C46.7475 44.1257 45.3193 43.5576 44.0582 43.0559C42.4468 42.415 40.7806 41.7522 38.6296 41.7522C34.5111 41.7522 31.6125 44.512 29.9998 47.0256C28.3871 44.512 25.4886 41.7522 21.3696 41.7522C19.219 41.7522 17.5523 42.415 15.9405 43.0564C14.1219 43.7796 11.8582 44.68 7.61842 45.1003C6.97435 45.1644 6.50423 45.7379 6.56785 46.382C6.63194 47.0261 7.20598 47.4962 7.85005 47.4326C12.4176 46.9794 14.9545 45.9705 16.8071 45.2339C18.342 44.6233 19.6677 44.0959 21.3696 44.0959C25.3261 44.0959 27.873 47.5722 28.8279 49.7749V49.818C27.1122 47.8189 24.584 46.0547 21.2758 46.0547C19.1046 46.0547 17.4214 46.7244 15.7927 47.3721C13.9534 48.1037 11.6646 49.0141 7.37626 49.4394C7.05446 49.4714 6.76012 49.6349 6.56282 49.8917L0.242948 58.114C-0.0294211 58.4679 -0.0765707 58.9458 0.120725 59.3463C0.318021 59.7464 0.72543 60 1.17175 60H58.8279C59.2742 60 59.6816 59.7464 59.8789 59.3463C60.0762 58.9458 60.029 58.4679 59.7567 58.114ZM38.7234 48.3985C40.446 48.3985 41.7867 48.9317 43.3404 49.5497C45.1421 50.2666 47.5852 51.238 51.8845 51.7181L56.4365 57.6402C48.6047 57.4713 44.8876 55.9927 42.3786 54.9948C40.9225 54.4157 39.9607 54.0331 38.7234 54.0331C36.5577 54.0331 35.0732 55.6586 34.458 57.0547C34.4525 57.0657 34.447 57.0767 34.4415 57.0882L34.1746 57.6562H31.1717V54.1493C32.1376 51.92 34.7161 48.3985 38.7234 48.3985ZM8.11509 51.7181C12.4144 51.238 14.857 50.2661 16.6602 49.5493C18.2124 48.9317 19.5537 48.3985 21.2758 48.3985C25.283 48.3985 27.8621 51.92 28.8279 54.1493V57.6562H25.8246L25.5581 57.0882C25.5526 57.0767 25.5472 57.0657 25.5417 57.0547C24.926 55.6586 23.4419 54.0331 21.2762 54.0331C20.0389 54.0331 19.0771 54.4157 17.621 54.9948C15.112 55.9927 11.3945 57.4713 3.5631 57.6402L8.11509 51.7181ZM18.4875 57.1724C19.7775 56.6592 20.488 56.3768 21.2758 56.3768C22.287 56.3768 22.9219 57.1724 23.2149 57.6562H17.2475C17.6933 57.4882 18.1035 57.3253 18.4875 57.1724ZM36.7848 57.6562C37.0777 57.1724 37.7127 56.3768 38.7234 56.3768C39.5117 56.3768 40.2221 56.6592 41.5125 57.1728C41.8961 57.3253 42.3068 57.4882 42.7522 57.6562H36.7848Z" fill="#8D6847"/>
<path d="M52.1085 47.4285L52.1511 47.4326C52.19 47.4363 52.2289 47.4385 52.2669 47.4385C52.8629 47.4385 53.3724 46.9863 53.4319 46.3811C53.4951 45.737 53.0245 45.1635 52.3805 45.1003L52.3388 45.0962C51.6947 45.0321 51.1211 45.5031 51.0575 46.1472C50.9939 46.7913 51.4645 47.3648 52.1085 47.4285Z" fill="#8D6847"/>
<path d="M26.0449 28.8327C25.7405 28.8588 25.4562 29.003 25.2557 29.2369C25.0328 29.4964 24.9348 29.8402 24.9865 30.178C25.4722 33.3416 27.1559 35.5032 29.6141 36.2443C29.5578 36.6874 29.5056 37.131 29.4589 37.576L28.835 43.5264C28.7677 44.17 29.2346 44.7468 29.8782 44.8141C29.9199 44.8187 29.961 44.8205 30.0018 44.8205C30.5941 44.8205 31.1027 44.3733 31.1659 43.7709L31.7898 37.8204C31.8351 37.3878 31.8859 36.9571 31.94 36.5272C37.391 36.4599 40.7189 32.9841 42.3847 25.6347C42.5701 24.8172 42.7949 23.865 43.0535 22.8044C43.1355 22.4684 43.065 22.1136 42.8604 21.8344C42.7844 21.7309 42.6928 21.6417 42.5903 21.5693L43.0513 21.3057C43.3282 21.1477 43.5287 20.8831 43.6061 20.5737C45.6536 12.4255 48.6511 1.59344 48.6813 1.48495C48.7824 1.12057 48.7014 0.730098 48.4638 0.436214C48.2267 0.141872 47.8605 -0.020634 47.4847 0.00225411C47.0878 0.0246846 37.6734 0.704922 29.935 13.2948C29.8388 13.4509 29.7454 13.6056 29.653 13.7608C29.5106 13.9979 29.4571 14.2781 29.501 14.5509L30.0879 18.164H28.098C27.6283 18.164 27.2044 18.4442 27.0199 18.8759C25.7652 21.8161 25.0442 24.5759 24.8767 27.0799C24.8542 27.4127 24.9751 27.7395 25.2086 27.978L26.0449 28.8327ZM41.455 19.5186L38.3253 21.307C37.8767 21.5634 37.6487 22.0834 37.7645 22.5869C37.8804 23.0905 38.3125 23.459 38.8279 23.4938L40.4507 23.6027C40.3216 24.1465 40.204 24.6524 40.0987 25.1165C38.4072 32.5799 35.2835 34.0535 32.2833 34.178C34.0026 23.8101 38.3537 14.1819 45.0109 6.02322C43.9883 9.79519 42.5926 15.0146 41.455 19.5186ZM28.8812 20.5082H31.4653C31.8086 20.5082 32.135 20.3572 32.3579 20.0953C32.5804 19.8335 32.677 19.4874 32.622 19.1482L31.8837 14.6003C31.8992 14.5742 31.9152 14.5486 31.9313 14.5225C35.6259 8.51162 39.699 5.52014 42.4653 4.06903C43.1204 3.72525 43.7347 3.45013 44.2955 3.22857C40.263 7.91058 36.9543 13.1442 34.4558 18.8026C32.3231 23.632 30.8162 28.6894 29.9578 33.8813C28.6816 33.3586 27.9972 32.2398 27.6301 31.1718H28.8285C29.3005 31.1718 29.7262 30.8889 29.9089 30.4541C30.0915 30.0196 29.9958 29.5175 29.6658 29.1801L27.258 26.721C27.4475 24.8167 27.9922 22.7321 28.8812 20.5082Z" fill="#8D6847"/>
</svg>
