<svg width="62" height="62" viewBox="0 0 62 62" fill="none" xmlns="http://www.w3.org/2000/svg">
<path d="M54.7004 28.7308C52.5907 27.676 48.6351 27.6638 48.4678 27.6638C47.9662 27.6638 47.5596 28.0705 47.5596 28.572C47.5596 29.0736 47.9662 29.4802 48.4678 29.4802C49.4885 29.4803 52.452 29.6375 53.8881 30.3555C54.0185 30.4208 54.157 30.4515 54.2935 30.4515C54.6266 30.4515 54.9474 30.2675 55.1065 29.9493C55.3309 29.5007 55.149 28.9552 54.7004 28.7308Z" fill="#8D6847"/>
<path d="M59.2284 41.6613L55.4775 40.5896C55.3156 40.5433 55.2025 40.3934 55.2025 40.225V38.973C55.5077 38.7616 55.7988 38.5249 56.0709 38.2608C57.3896 36.9811 58.1158 35.2646 58.1158 33.4274V31.6997L58.4785 30.9745C58.8765 30.1783 59.0868 29.287 59.0868 28.3969V23.7166C59.0868 23.2151 58.6802 22.8084 58.1786 22.8084H49.4389C46.261 22.8084 43.6754 25.394 43.6754 28.572V28.6261C43.6754 29.3663 43.8503 30.1075 44.1813 30.7694L44.6464 31.6996V33.183C44.6464 35.5339 45.8049 37.6433 47.5597 38.9126L47.5599 40.2247C47.5599 40.4271 47.5599 40.5109 46.81 40.7252L44.9798 41.2481L39.6855 39.323C39.7045 39.0731 39.6202 38.8191 39.4379 38.6276L37.7461 36.8502V33.8665C37.925 33.7191 38.1013 33.5677 38.2722 33.4076C40.4064 31.4072 41.6305 28.5828 41.6305 25.6587V23.2759C42.2749 21.8735 42.6015 20.3895 42.6015 18.8611V9.15063C42.6015 8.64906 42.1949 8.24243 41.6933 8.24243H28.0982C23.3138 8.24243 19.4215 12.1349 19.4215 16.9192V18.8614C19.4215 20.3897 19.7481 21.8737 20.3926 23.2761V25.3263C20.3926 28.7213 21.9021 31.7799 24.2769 33.7964V36.8503L22.5851 38.6278C22.4028 38.8192 22.3185 39.0733 22.3376 39.3231L16.7497 41.3549C16.3448 41.5022 15.9685 41.7016 15.6269 41.9432L14.7495 41.5045C17.3615 40.3675 18.1889 38.7685 18.2286 38.689C18.3565 38.4334 18.3565 38.1324 18.2286 37.8767C17.5739 36.5672 17.4945 34.167 17.4308 32.2385C17.4096 31.5964 17.3895 30.9899 17.3512 30.4498C17.0415 26.0936 13.7299 22.8084 9.64778 22.8084C5.56571 22.8084 2.25392 26.0935 1.9444 30.4498C1.90602 30.99 1.88591 31.5966 1.86472 32.2387C1.80103 34.1672 1.72159 36.5671 1.06696 37.8766C0.939082 38.1322 0.939082 38.4333 1.06696 38.6889C1.10668 38.7683 1.93241 40.3641 4.54961 41.5024L2.11236 42.721C0.809391 43.3729 0 44.6826 0 46.1392V52.8489C0 53.3505 0.406633 53.7571 0.908203 53.7571C1.40977 53.7571 1.81641 53.3505 1.81641 52.8489V46.1392C1.81641 45.3749 2.24108 44.6877 2.92466 44.3458L5.95963 42.8284L7.01532 43.8316C7.75351 44.5331 8.70046 44.8837 9.64778 44.8837C10.5949 44.8837 11.5423 44.5329 12.2802 43.8316L13.3358 42.8285L14.3254 43.3233C13.8594 44.0689 13.595 44.9432 13.595 45.859V52.8491C13.595 53.3507 14.0016 53.7573 14.5032 53.7573C15.0047 53.7573 15.4114 53.3507 15.4114 52.8491V45.859C15.4114 44.6122 16.1986 43.4882 17.3704 43.0621L23.2619 40.9198L25.7144 44.5988C26.0279 45.0691 26.5303 45.3707 27.0928 45.4264C27.1555 45.4326 27.2179 45.4356 27.2801 45.4356C27.7764 45.4356 28.2517 45.2403 28.6069 44.8852L30.1032 43.3889V52.8493C30.1032 53.3508 30.5098 53.7575 31.0114 53.7575C31.513 53.7575 31.9196 53.3508 31.9196 52.8493V43.3889L33.4158 44.8852C33.771 45.2404 34.2463 45.4358 34.7426 45.4358C34.8048 45.4358 34.8672 45.4327 34.9299 45.4266C35.4925 45.3709 35.9949 45.0692 36.3084 44.5989L38.761 40.9201L44.6524 43.0623C45.8241 43.4885 46.6114 44.6125 46.6114 45.8592V52.8494C46.6114 53.3509 47.018 53.7576 47.5196 53.7576C48.0212 53.7576 48.4278 53.3509 48.4278 52.8494V45.8592C48.4278 44.5965 47.9261 43.4122 47.0845 42.5363L47.3089 42.4722C47.5352 42.4076 47.844 42.3191 48.154 42.1671L50.4728 44.4859V52.8494C50.4728 53.3509 50.8795 53.7576 51.3811 53.7576C51.8826 53.7576 52.2893 53.3509 52.2893 52.8494V44.4859L54.592 42.1832C54.7144 42.2454 54.843 42.298 54.9784 42.3366L58.7294 43.4083C59.5855 43.6529 60.1836 44.4457 60.1836 45.3362V52.8494C60.1836 53.3509 60.5902 53.7576 61.0918 53.7576C61.5934 53.7576 62 53.3509 62 52.8494V45.3362C62 43.6387 60.8603 42.1276 59.2284 41.6613ZM5.82643 40.0571C4.1276 39.4459 3.27546 38.6309 2.9117 38.1859C3.1597 37.5376 3.32051 36.795 3.42937 36.0112C3.93022 37.212 4.76904 38.2372 5.82643 38.9686V40.0571ZM11.0292 42.5151C10.2546 43.2511 9.0411 43.251 8.26671 42.515L7.42208 41.7124C7.56461 41.4454 7.64295 41.1426 7.64295 40.8255V39.8575C8.27652 40.0555 8.95004 40.1623 9.64802 40.1623C10.3452 40.1623 11.0183 40.055 11.653 39.8581L11.6529 40.8254C11.6529 41.1426 11.7311 41.4455 11.8737 41.7126L11.0292 42.5151ZM9.64827 38.3458C6.93625 38.3458 4.73004 36.1395 4.73004 33.4276C4.73004 32.9261 4.32341 32.5194 3.82184 32.5194C3.77098 32.5194 3.72133 32.5246 3.67277 32.5327C3.67544 32.4546 3.67798 32.3764 3.68064 32.299C3.70087 31.6746 3.72036 31.0847 3.75633 30.5788C3.87234 28.9469 4.52443 27.4432 5.59247 26.3444C6.67009 25.2356 8.11038 24.6251 9.64802 24.6251C11.1857 24.6251 12.6258 25.2356 13.7036 26.3444C14.7716 27.4432 15.4237 28.9469 15.5397 30.5788C15.5756 31.0846 15.5952 31.6743 15.6158 32.2987C15.6176 32.3523 15.6194 32.4067 15.6212 32.4607C14.6331 30.9383 13.1071 29.8164 11.1353 29.1828C9.31368 28.5976 7.74697 28.6338 7.68086 28.6355C7.44303 28.6421 7.21731 28.7417 7.05226 28.9129L5.41362 30.6123C5.06547 30.9734 5.07589 31.5484 5.43699 31.8965C5.79809 32.2447 6.37304 32.2341 6.72119 31.8731L8.0847 30.4591C9.25895 30.5165 13.0367 30.9559 14.5059 34.1911C14.1362 36.5752 12.0871 38.3458 9.64827 38.3458ZM13.4691 40.0602L13.4693 38.977C14.5258 38.2496 15.3658 37.2263 15.867 36.0164C15.9759 36.7984 16.1366 37.5392 16.3841 38.1861C16.0224 38.6269 15.1663 39.4491 13.4691 40.0602ZM22.209 25.3262V23.0729C22.209 22.9362 22.1781 22.8012 22.1186 22.678C21.5342 21.4678 21.2379 20.1837 21.2379 18.8614V16.9193C21.2379 13.1364 24.3155 10.059 28.0982 10.059H40.7851V18.8615C40.7851 20.1838 40.4888 21.4679 39.9044 22.6781C39.8449 22.8013 39.814 22.9363 39.814 23.073V25.659C39.814 28.1185 38.8253 30.3998 37.03 32.0826C36.8058 32.2926 36.5732 32.4895 36.3327 32.673C36.3274 32.6766 36.3223 32.6806 36.3171 32.6844C34.6352 33.9613 32.5752 34.5819 30.4238 34.4425C25.8173 34.1443 22.209 30.1399 22.209 25.3262ZM27.3226 43.6006C27.3163 43.6069 27.3017 43.6218 27.272 43.6186C27.2425 43.6157 27.2308 43.5984 27.2259 43.5909L24.4014 39.3541L25.3103 38.399L29.5952 41.3279L27.3226 43.6006ZM31.0115 40.0958L26.0933 36.734V35.0387C27.3659 35.7266 28.7908 36.1568 30.3063 36.2549C30.5457 36.2704 30.7836 36.2781 31.0208 36.2781C32.7574 36.2781 34.4288 35.8629 35.9297 35.075V36.734L31.0115 40.0958ZM34.7971 43.5911C34.7922 43.5987 34.7805 43.616 34.751 43.6189C34.7213 43.6226 34.7068 43.607 34.7004 43.6008L32.4278 41.3283L36.7127 38.3993L37.6218 39.3543L34.7971 43.5911ZM51.3811 42.8249L49.32 40.764C49.356 40.6006 49.3763 40.4218 49.3762 40.2245L49.3761 39.8412C49.948 40.0289 50.5508 40.1403 51.1746 40.159C51.2446 40.1612 51.314 40.1621 51.3837 40.1621C52.073 40.1621 52.7458 40.058 53.3861 39.8593V40.225C53.3861 40.4061 53.4089 40.5837 53.4517 40.7543L51.3811 42.8249ZM54.8059 36.9574C53.8434 37.8915 52.5718 38.3848 51.2292 38.3434C48.601 38.2646 46.4628 35.9496 46.4628 33.1833V31.4854C46.4628 31.3443 46.43 31.2053 46.3669 31.0793L45.8059 29.9572C45.6004 29.5461 45.4918 29.0859 45.4918 28.6263V28.5721C45.4918 26.3956 47.2625 24.625 49.4389 24.625H57.2704V28.397C57.2704 29.0066 57.1263 29.6171 56.8538 30.1623L56.3953 31.0793C56.3322 31.2054 56.2994 31.3443 56.2994 31.4854V33.4275C56.2994 34.7692 55.769 36.0228 54.8059 36.9574Z" fill="#8D6847"/>
<path d="M57.207 46.1143C56.7055 46.1143 56.2988 46.5209 56.2988 47.0225V52.8489C56.2988 53.3505 56.7055 53.7571 57.207 53.7571C57.7086 53.7571 58.1152 53.3505 58.1152 52.8489V47.0225C58.1152 46.521 57.7086 46.1143 57.207 46.1143Z" fill="#8D6847"/>
<path d="M4.79297 47.3147C4.2914 47.3147 3.88477 47.7213 3.88477 48.2229V52.8488C3.88477 53.3504 4.2914 53.757 4.79297 53.757C5.29454 53.757 5.70117 53.3504 5.70117 52.8488V48.2229C5.70117 47.7215 5.29454 47.3147 4.79297 47.3147Z" fill="#8D6847"/>
<path d="M38.4511 19.1903C35.0162 15.7554 27.8294 16.4121 24.8987 16.8538C23.9756 16.993 23.3057 17.7741 23.3057 18.7113V20.8035C23.3057 21.3051 23.7123 21.7117 24.2139 21.7117C24.7154 21.7117 25.1221 21.3051 25.1221 20.8035V18.7112C25.1221 18.6803 25.1424 18.6539 25.1695 18.6498C26.3402 18.4733 28.6631 18.2011 31.0698 18.3616C33.902 18.5501 35.9533 19.2611 37.1668 20.4747C37.5215 20.8293 38.0965 20.8293 38.4511 20.4747C38.8058 20.12 38.8058 19.5449 38.4511 19.1903Z" fill="#8D6847"/>
<path d="M20.3301 48.0564C19.8285 48.0564 19.4219 48.463 19.4219 48.9646V52.8489C19.4219 53.3505 19.8285 53.7571 20.3301 53.7571C20.8316 53.7571 21.2383 53.3505 21.2383 52.8489V48.9646C21.2383 48.4632 20.8316 48.0564 20.3301 48.0564Z" fill="#8D6847"/>
<path d="M41.6934 48.0564C41.1918 48.0564 40.7852 48.463 40.7852 48.9646V52.8489C40.7852 53.3505 41.1918 53.7571 41.6934 53.7571C42.1949 53.7571 42.6016 53.3505 42.6016 52.8489V48.9646C42.6016 48.4632 42.1949 48.0564 41.6934 48.0564Z" fill="#8D6847"/>
</svg>
