<svg width="55" height="57" viewBox="0 0 55 57" fill="none" xmlns="http://www.w3.org/2000/svg">
<g clip-path="url(#clip0)">
<path d="M54.1928 53.0959H52.4169V29.7828H54.1928C54.4874 29.7828 54.7586 29.6165 54.9005 29.3488C55.0422 29.0811 55.032 28.7546 54.8739 28.497L48.8465 18.681C48.6983 18.4396 48.4415 18.2935 48.1654 18.2935H32.1396L28.3073 14.3219V11.0431H36.1106C36.4083 11.0431 36.6819 10.8733 36.8224 10.6013C36.9628 10.3293 36.9474 9.99913 36.7822 9.74246L35.3587 7.52939L36.7823 5.31632C36.9475 5.05965 36.9628 4.72948 36.8225 4.45753C36.6819 4.18547 36.4083 4.01569 36.1106 4.01569H28.3073V3.06755C28.3073 2.60553 27.9458 2.23096 27.5 2.23096C27.0542 2.23096 26.6928 2.60553 26.6928 3.06755V14.3219L22.8604 18.2936H6.83466C6.55869 18.2936 6.30177 18.4397 6.15356 18.6811L0.126165 28.4971C-0.0319468 28.7547 -0.0421719 29.0812 0.0995796 29.3489C0.241439 29.6165 0.512672 29.7828 0.807261 29.7828H2.58319V53.0959H0.807261C0.361448 53.0959 1.98865e-05 53.4705 1.98865e-05 53.9325C1.98865e-05 54.3945 0.361448 54.7691 0.807261 54.7691H54.1928C54.6386 54.7691 55 54.3945 55 53.9325C55 53.4705 54.6386 53.0959 54.1928 53.0959ZM47.7223 19.9668L52.7223 28.1096H41.6112L33.7541 19.9668H47.7223ZM34.6022 5.68888L33.7167 7.06536C33.5359 7.34634 33.5359 7.71244 33.7167 7.99342L34.6022 9.3699H28.3073V5.68888H34.6022ZM7.27778 19.9668H21.2458L13.3887 28.1096H2.27784L7.27778 19.9668ZM4.19767 29.7828H13.7229C13.7496 29.7828 13.7763 29.7814 13.803 29.7786C13.8144 29.7775 13.8256 29.7752 13.8369 29.7736C13.8516 29.7713 13.8664 29.7695 13.8811 29.7665C13.8942 29.7639 13.9069 29.7601 13.9199 29.7567C13.9325 29.7535 13.9452 29.7505 13.9576 29.7467C13.9703 29.7427 13.9827 29.7376 13.9952 29.7331C14.0076 29.7285 14.02 29.7243 14.0322 29.719C14.044 29.714 14.0552 29.7081 14.0666 29.7025C14.0789 29.6964 14.0915 29.6907 14.1037 29.6839C14.1148 29.6777 14.1252 29.6707 14.136 29.6641C14.1478 29.6569 14.1599 29.6499 14.1714 29.6418C14.1835 29.6335 14.1948 29.6242 14.2063 29.6152C14.2157 29.6078 14.2255 29.601 14.2347 29.5931C14.2554 29.5756 14.2752 29.557 14.294 29.5374L27.5 15.8514L40.7061 29.5375C40.7249 29.557 40.7448 29.5756 40.7654 29.5932C40.7745 29.601 40.7842 29.6078 40.7937 29.6152C40.8053 29.6242 40.8167 29.6336 40.8288 29.6419C40.8402 29.6499 40.8521 29.6568 40.8638 29.664C40.8747 29.6708 40.8853 29.6779 40.8965 29.684C40.9085 29.6907 40.9209 29.6964 40.9333 29.7024C40.9448 29.7081 40.9562 29.714 40.968 29.7191C40.9801 29.7243 40.9924 29.7284 41.0045 29.733C41.0171 29.7376 41.0296 29.7427 41.0425 29.7468C41.0548 29.7507 41.0673 29.7535 41.0796 29.7567C41.0928 29.7602 41.1057 29.764 41.119 29.7666C41.1332 29.7695 41.1476 29.7713 41.1619 29.7734C41.1736 29.7752 41.1852 29.7775 41.1972 29.7787C41.2237 29.7814 41.2502 29.7828 41.2768 29.7828H50.8024V53.0959H33.4736V41.4394C33.4736 39.994 32.3389 38.818 30.9443 38.818H24.0558C22.6611 38.818 21.5264 39.994 21.5264 41.4394V53.0959H4.19767V29.7828ZM31.8591 42.3875H23.1409V41.4394C23.1409 40.9166 23.5513 40.4912 24.0558 40.4912H30.9443C31.4487 40.4912 31.8591 40.9166 31.8591 41.4394V42.3875ZM23.1409 44.0607H26.6928V53.0959H23.1409V44.0607ZM28.3073 44.0607H31.8591V53.0959H28.3073V44.0607Z" fill="#8D6847"/>
<path d="M27.4999 36.0294C30.7938 36.0294 33.4735 33.2523 33.4735 29.8386C33.4735 26.425 30.7938 23.6478 27.4999 23.6478C24.2061 23.6478 21.5264 26.425 21.5264 29.8386C21.5264 33.2523 24.2061 36.0294 27.4999 36.0294ZM27.4999 25.321C29.9036 25.321 31.859 27.3476 31.859 29.8386C31.859 32.3297 29.9036 34.3562 27.4999 34.3562C25.0963 34.3562 23.1408 32.3297 23.1408 29.8386C23.1408 27.3476 25.0963 25.321 27.4999 25.321Z" fill="#8D6847"/>
<path d="M27.4998 30.6751C27.9456 30.6751 28.307 30.3006 28.307 29.8385V27.1614C28.307 26.6994 27.9456 26.3248 27.4998 26.3248C27.054 26.3248 26.6925 26.6994 26.6925 27.1614V29.0019H24.9166C24.4708 29.0019 24.1094 29.3765 24.1094 29.8385C24.1094 30.3006 24.4708 30.6751 24.9166 30.6751H27.4998Z" fill="#8D6847"/>
<path d="M18.8899 43.2799H14.5846C14.1388 43.2799 13.7773 43.6545 13.7773 44.1165V49.4707C13.7773 49.9327 14.1388 50.3073 14.5846 50.3073H18.8899C19.3357 50.3073 19.6971 49.9327 19.6971 49.4707V44.1165C19.6971 43.6545 19.3357 43.2799 18.8899 43.2799ZM18.0826 44.9531V45.957H15.3918V44.9531H18.0826ZM15.3918 48.6341V47.6302H18.0826V48.6341H15.3918Z" fill="#8D6847"/>
<path d="M11.1399 43.2799H6.83458C6.38877 43.2799 6.02734 43.6545 6.02734 44.1165V49.4707C6.02734 49.9327 6.38877 50.3073 6.83458 50.3073H11.1399C11.5857 50.3073 11.9471 49.9327 11.9471 49.4707V44.1165C11.9471 43.6545 11.5857 43.2799 11.1399 43.2799ZM10.3326 44.9531V45.957H7.64183V44.9531H10.3326ZM7.64183 48.6341V47.6302H10.3326V48.6341H7.64183Z" fill="#8D6847"/>
<path d="M18.6208 32.5714H14.8537C14.2602 32.5714 13.7773 33.0718 13.7773 33.6869V39.6546C13.7773 40.1166 14.1388 40.4912 14.5846 40.4912H18.8899C19.3357 40.4912 19.6971 40.1166 19.6971 39.6546V33.6869C19.6971 33.0718 19.2143 32.5714 18.6208 32.5714ZM18.0826 34.2446V36.1409H15.3918V34.2446H18.0826ZM15.3918 38.818V37.8141H18.0826V38.818H15.3918Z" fill="#8D6847"/>
<path d="M10.8708 32.5714H7.10366C6.51018 32.5714 6.02734 33.0718 6.02734 33.6869V39.6546C6.02734 40.1166 6.38877 40.4912 6.83458 40.4912H11.1399C11.5857 40.4912 11.9471 40.1166 11.9471 39.6546V33.6869C11.9471 33.0718 11.4643 32.5714 10.8708 32.5714ZM10.3326 34.2446V36.1409H7.64183V34.2446H10.3326ZM7.64183 38.818V37.8141H10.3326V38.818H7.64183Z" fill="#8D6847"/>
<path d="M43.86 50.3073H48.1653C48.6111 50.3073 48.9725 49.9327 48.9725 49.4707V44.1165C48.9725 43.6545 48.6111 43.2799 48.1653 43.2799H43.86C43.4142 43.2799 43.0527 43.6545 43.0527 44.1165V49.4707C43.0527 49.9327 43.4142 50.3073 43.86 50.3073ZM44.6672 48.6341V47.6302H47.358V48.6341H44.6672ZM47.358 44.9531V45.957H44.6672V44.9531H47.358Z" fill="#8D6847"/>
<path d="M36.111 50.3073H40.4162C40.8621 50.3073 41.2235 49.9327 41.2235 49.4707V44.1165C41.2235 43.6545 40.8621 43.2799 40.4162 43.2799H36.111C35.6651 43.2799 35.3037 43.6545 35.3037 44.1165V49.4707C35.3037 49.9327 35.6651 50.3073 36.111 50.3073ZM36.9182 48.6341V47.6302H39.609V48.6341H36.9182ZM39.609 44.9531V45.957H36.9182V44.9531H39.609Z" fill="#8D6847"/>
<path d="M43.86 40.4912H48.1653C48.6111 40.4912 48.9725 40.1166 48.9725 39.6546V33.6869C48.9725 33.0718 48.4897 32.5714 47.8962 32.5714H44.1291C43.5356 32.5714 43.0527 33.0718 43.0527 33.6869V39.6546C43.0527 40.1166 43.4142 40.4912 43.86 40.4912ZM44.6672 38.818V37.8141H47.358V38.818H44.6672ZM47.358 34.2446V36.1409H44.6672V34.2446H47.358Z" fill="#8D6847"/>
<path d="M36.111 40.4912H40.4162C40.8621 40.4912 41.2235 40.1166 41.2235 39.6546V33.6869C41.2235 33.0718 40.7406 32.5714 40.1472 32.5714H36.38C35.7865 32.5714 35.3037 33.0718 35.3037 33.6869V39.6546C35.3037 40.1166 35.6651 40.4912 36.111 40.4912ZM36.9182 38.818V37.8141H39.609V38.818H36.9182ZM39.609 34.2446V36.1409H36.9182V34.2446H39.609Z" fill="#8D6847"/>
</g>
<defs>
<clipPath id="clip0">
<rect width="55" height="57" fill="white"/>
</clipPath>
</defs>
</svg>
