<svg width="55" height="57" viewBox="0 0 55 57" fill="none" xmlns="http://www.w3.org/2000/svg">
<g clip-path="url(#clip0)">
<path d="M50.2715 50.7395L42.9901 32.5215C42.8046 32.0575 42.2912 31.8369 41.8434 32.0293C41.3955 32.2216 41.1828 32.7537 41.3684 33.2177L47.951 49.6871L41.9467 47.8841C41.5526 47.7656 41.1317 47.9463 40.9338 48.319L37.9183 53.9939L30.8552 36.322C39.0073 34.6927 45.1841 27.2441 45.1841 18.3272C45.1842 8.22158 37.2512 0 27.5002 0C17.7492 0 9.81606 8.22158 9.81606 18.3272C9.81606 22.4204 11.1178 26.2042 13.3145 29.2582L4.72891 50.7395C4.59984 51.0625 4.66081 51.4336 4.88584 51.6941C5.11075 51.9547 5.46006 52.0585 5.78409 51.9612L12.8677 49.8339L16.4252 56.5292C16.5801 56.8206 16.8754 57 17.1938 57C17.2099 57 17.2262 56.9995 17.2425 56.9987C17.5794 56.9793 17.8757 56.7616 18.0049 56.4385L24.808 39.417C24.9935 38.9528 24.7809 38.4208 24.333 38.2286C23.8852 38.0363 23.3718 38.2567 23.1863 38.7208L17.0819 53.9939L14.0666 48.319C13.8686 47.9463 13.4475 47.7656 13.0536 47.8841L7.04944 49.6871L14.5853 30.8324C17.8148 34.4125 22.4093 36.6543 27.5002 36.6543C28.0257 36.6543 28.5456 36.6289 29.0595 36.5822L36.9957 56.4385C37.1247 56.7616 37.4212 56.9793 37.7579 56.9985C37.7743 56.9995 37.7905 57 37.8067 57C38.1251 57 38.4204 56.8206 38.5752 56.5292L42.1328 49.8339L49.2164 51.9612C49.5407 52.0586 49.8896 51.9547 50.1147 51.6941C50.3397 51.4336 50.4006 51.0625 50.2715 50.7395ZM11.5714 18.3272C11.5714 9.22466 18.7171 1.81915 27.5002 1.81915C36.2833 1.81915 43.4289 9.22466 43.4289 18.3272C43.4289 27.4297 36.2833 34.8351 27.5002 34.8351C18.7171 34.8351 11.5714 27.4297 11.5714 18.3272Z" fill="#8D6847"/>
<path d="M37.6413 14.9123C37.5403 14.59 37.2744 14.3525 36.9518 14.2963L31.0461 13.2693L28.2787 7.76584C28.1275 7.4652 27.8275 7.27661 27.5003 7.27661C27.1733 7.27661 26.8732 7.4652 26.722 7.76584L23.9545 13.2693L18.0489 14.2963C17.7263 14.3524 17.4605 14.5898 17.3594 14.9123C17.2583 15.2348 17.3386 15.5887 17.5678 15.8306L21.763 20.259L20.8807 26.3973C20.8325 26.7327 20.9682 27.0679 21.2329 27.2672C21.4974 27.4664 21.8472 27.4966 22.14 27.3456L27.5003 24.579L32.8606 27.3456C32.9846 27.4095 33.1184 27.441 33.2518 27.441C33.434 27.441 33.6151 27.3823 33.7678 27.2674C34.0325 27.068 34.1682 26.7328 34.12 26.3974L33.2378 20.2591L37.433 15.8306C37.6621 15.5887 37.7424 15.2348 37.6413 14.9123ZM31.6789 19.3079C31.4861 19.5115 31.3966 19.797 31.4372 20.0791L32.1358 24.9391L27.8917 22.7487C27.7683 22.6852 27.6345 22.6533 27.5003 22.6533C27.3664 22.6533 27.2323 22.685 27.1091 22.7487L22.865 24.9391L23.5636 20.0791C23.6042 19.797 23.5147 19.5114 23.3219 19.3079L20.0002 15.8015L24.676 14.9882C24.9475 14.941 25.1819 14.7646 25.3091 14.5116L27.5003 10.1543L29.6916 14.5117C29.8189 14.7647 30.0532 14.9412 30.3247 14.9883L35.0006 15.8016L31.6789 19.3079Z" fill="#8D6847"/>
<path d="M40.7957 19.2447C40.3151 19.1781 39.8739 19.5288 39.8104 20.0269C38.9962 26.3948 33.7042 31.197 27.5007 31.197C20.6533 31.197 15.0825 25.4237 15.0825 18.3272C15.0825 11.2307 20.6533 5.45745 27.5007 5.45745C33.7043 5.45745 38.9962 10.2595 39.8104 16.6275C39.8739 17.1256 40.3159 17.4766 40.7957 17.4097C41.2761 17.3438 41.6141 16.8866 41.5504 16.3886C40.6212 9.11977 34.5812 3.63831 27.5007 3.63831C19.6854 3.63831 13.3271 10.2276 13.3271 18.3272C13.3271 26.4268 19.6854 33.016 27.5007 33.016C34.5812 33.016 40.6212 27.5345 41.5505 20.2657C41.6141 19.7679 41.2762 19.3106 40.7957 19.2447Z" fill="#8D6847"/>
</g>
<defs>
<clipPath id="clip0">
<rect width="55" height="57" fill="white"/>
</clipPath>
</defs>
</svg>
