<svg width="60" height="62" viewBox="0 0 60 62" fill="none" xmlns="http://www.w3.org/2000/svg">
<g clip-path="url(#clip0)">
<path d="M59.1211 39.7988C56.5291 39.7988 55.2171 40.3234 53.9482 40.8307C52.7784 41.2983 51.6734 41.7402 49.4096 41.7402C47.1458 41.7402 46.0409 41.2985 44.871 40.8307C43.6022 40.3234 42.2902 39.7988 39.6981 39.7988C37.1077 39.7988 35.7964 40.3235 34.5284 40.8308C33.3594 41.2985 32.2553 41.7402 29.9933 41.7402C27.7304 41.7402 26.6259 41.2985 25.4566 40.8308C24.1882 40.3234 22.8766 39.7988 20.2855 39.7988C17.6952 39.7988 16.384 40.3235 15.1159 40.8308C13.947 41.2985 12.8429 41.7402 10.581 41.7402C8.31973 41.7402 7.21594 41.2985 6.04734 40.8308C4.77961 40.3234 3.46875 39.7988 0.878906 39.7988C0.393516 39.7988 0 40.2055 0 40.707C0 41.2086 0.393516 41.6152 0.878906 41.6152C3.14016 41.6152 4.24383 42.057 5.41254 42.5246C6.68027 43.032 7.99113 43.5566 10.581 43.5566C13.1713 43.5566 14.4825 43.0319 15.7506 42.5246C16.9195 42.057 18.0236 41.6152 20.2855 41.6152C22.5483 41.6152 23.6528 42.057 24.8221 42.5246C26.0905 43.032 27.4022 43.5566 29.9933 43.5566C32.5837 43.5566 33.895 43.0319 35.163 42.5246C36.332 42.057 37.4361 41.6152 39.6981 41.6152C41.9618 41.6152 43.0669 42.057 44.2366 42.5248C45.5055 43.032 46.8176 43.5566 49.4096 43.5566C52.0017 43.5566 53.3136 43.032 54.5825 42.5248C55.7523 42.0571 56.8574 41.6152 59.1211 41.6152C59.6065 41.6152 60 41.2086 60 40.707C60 40.2055 59.6065 39.7988 59.1211 39.7988Z" fill="#8D6847"/>
<path d="M55.2443 45.1704C55.0697 44.7023 54.5607 44.4692 54.108 44.6497L53.9478 44.7136C53.4187 44.9252 52.9189 45.125 52.3242 45.2846C51.8544 45.4107 51.5724 45.9065 51.6944 46.392C51.7972 46.8009 52.1538 47.072 52.5445 47.072C52.6178 47.072 52.6921 47.0625 52.7661 47.0426C53.4589 46.8566 54.0299 46.6283 54.5822 46.4075L54.7403 46.3444C55.1932 46.1639 55.4189 45.6383 55.2443 45.1704Z" fill="#8D6847"/>
<path d="M48.8193 45.6124C46.9442 45.5425 45.937 45.1399 44.8708 44.7135C43.6019 44.2062 42.2898 43.6816 39.6979 43.6816C37.1074 43.6816 35.7962 44.2063 34.5281 44.7136C33.3592 45.1813 32.2551 45.623 29.9931 45.623C27.7302 45.623 26.6258 45.1813 25.4564 44.7135C24.188 44.2062 22.8764 43.6815 20.2853 43.6815C17.695 43.6815 16.3838 44.2062 15.1157 44.7135C14.052 45.1391 13.0472 45.541 11.1797 45.6119C10.6945 45.6303 10.3158 46.0516 10.3336 46.5528C10.3514 47.0541 10.7592 47.4444 11.2442 47.4271C13.4067 47.3451 14.5983 46.8683 15.7505 46.4073C16.9194 45.9397 18.0235 45.4979 20.2854 45.4979C22.5482 45.4979 23.6527 45.9397 24.822 46.4075C26.0904 46.9147 27.4021 47.4394 29.9932 47.4394C32.5837 47.4394 33.8949 46.9147 35.1629 46.4075C36.3319 45.9398 37.436 45.498 39.698 45.498C41.9617 45.498 43.0668 45.9398 44.2365 46.4076C45.3914 46.8693 46.5856 47.3468 48.756 47.4277C49.238 47.4455 49.6485 47.0541 49.666 46.5528C49.6834 46.0514 49.3043 45.6304 48.8193 45.6124Z" fill="#8D6847"/>
<path d="M39.6977 47.5645C37.1073 47.5645 35.7961 48.0892 34.528 48.5964C33.3591 49.0641 32.2549 49.5058 29.993 49.5058C27.7301 49.5058 26.6257 49.0641 25.4563 48.5964C24.1879 48.089 22.8763 47.5645 20.2852 47.5645C19.7998 47.5645 19.4062 47.9711 19.4062 48.4727C19.4062 48.9742 19.7998 49.3809 20.2852 49.3809C22.5479 49.3809 23.6524 49.8226 24.8218 50.2903C26.0903 50.7977 27.4018 51.3222 29.993 51.3222C32.5834 51.3222 33.8946 50.7975 35.1627 50.2903C36.3316 49.8226 37.4358 49.3809 39.6977 49.3809C40.1831 49.3809 40.5766 48.9742 40.5766 48.4727C40.5766 47.9711 40.1831 47.5645 39.6977 47.5645Z" fill="#8D6847"/>
<path d="M7.6768 45.2867C7.07856 45.1265 6.57711 44.9257 6.04625 44.7132C5.59367 44.532 5.08449 44.7643 4.90918 45.2319C4.73387 45.6997 4.95863 46.2257 5.41121 46.4069C5.96551 46.6287 6.53867 46.8582 7.2357 47.0449C7.30965 47.0648 7.38383 47.0742 7.45684 47.0742C7.84766 47.0742 8.20438 46.8028 8.30703 46.3937C8.42891 45.9081 8.14672 45.4126 7.6768 45.2867Z" fill="#8D6847"/>
<path d="M41.5174 27.5715C38.8916 23.6791 34.5861 21.3553 30.0001 21.3553C22.2637 21.3553 15.9697 27.859 15.9697 35.8534C15.9696 36.1984 15.9814 36.5466 16.0049 36.8882C16.0376 37.3667 16.4235 37.7324 16.8807 37.7324C16.9016 37.7324 16.9225 37.7317 16.9436 37.7301C17.4278 37.6948 17.7926 37.2605 17.7584 36.7602C17.7379 36.4608 17.7275 36.1558 17.7275 35.8534C17.7275 28.8607 23.2329 23.1718 30.0001 23.1718C34.0116 23.1718 37.7781 25.2048 40.0753 28.6102C40.3529 29.0215 40.9007 29.1225 41.299 28.8359C41.6972 28.549 41.7949 27.9829 41.5174 27.5715Z" fill="#8D6847"/>
<path d="M12.152 34.9453H6.51562C6.03023 34.9453 5.63672 35.3519 5.63672 35.8535C5.63672 36.3551 6.03023 36.7617 6.51562 36.7617H12.152C12.6374 36.7617 13.0309 36.3551 13.0309 35.8535C13.0309 35.3519 12.6374 34.9453 12.152 34.9453Z" fill="#8D6847"/>
<path d="M30 10.6777C29.5146 10.6777 29.1211 11.0844 29.1211 11.5859V17.4102C29.1211 17.9119 29.5146 18.3184 30 18.3184C30.4854 18.3184 30.8789 17.9118 30.8789 17.4102V11.5859C30.8789 11.0844 30.4854 10.6777 30 10.6777Z" fill="#8D6847"/>
<path d="M47.2281 18.0515C46.8848 17.6969 46.3283 17.6969 45.9852 18.0515L41.9996 22.1699C41.6564 22.5246 41.6564 23.0997 41.9996 23.4543C42.1712 23.6315 42.3961 23.7203 42.6211 23.7203C42.8459 23.7203 43.0709 23.6317 43.2425 23.4543L47.2281 19.3359C47.5713 18.9812 47.5713 18.4061 47.2281 18.0515Z" fill="#8D6847"/>
<path d="M23.9813 18.4665L23.2624 16.6729C23.0767 16.2095 22.5626 15.9896 22.1141 16.1814C21.6656 16.3733 21.4527 16.9047 21.6384 17.368L22.3574 19.1616C22.4975 19.5113 22.8248 19.7225 23.1697 19.7225C23.2819 19.7225 23.3958 19.7002 23.5057 19.6531C23.9542 19.4612 24.1671 18.9298 23.9813 18.4665Z" fill="#8D6847"/>
<path d="M49.0372 27.7052C48.8515 27.2419 48.3374 27.0217 47.8889 27.2136L46.1531 27.9565C45.7047 28.1484 45.4917 28.6797 45.6775 29.1431C45.8176 29.4929 46.1449 29.7041 46.4898 29.7041C46.602 29.7041 46.7159 29.6818 46.8258 29.6347L48.5616 28.8918C49.0101 28.6998 49.223 28.1685 49.0372 27.7052Z" fill="#8D6847"/>
<path d="M37.8856 16.1813C37.4372 15.9894 36.923 16.2094 36.7372 16.6728L36.0183 18.4665C35.8326 18.9298 36.0455 19.461 36.494 19.6531C36.6039 19.7002 36.7179 19.7225 36.8299 19.7225C37.1748 19.7225 37.5021 19.5113 37.6423 19.1615L38.3612 17.3679C38.547 16.9045 38.334 16.3732 37.8856 16.1813Z" fill="#8D6847"/>
<path d="M13.8467 27.9564L12.111 27.2135C11.6624 27.0216 11.1484 27.2416 10.9626 27.705C10.7769 28.1685 10.9898 28.6997 11.4383 28.8916L13.1741 29.6346C13.2841 29.6817 13.398 29.7039 13.5101 29.7039C13.8549 29.7039 14.1822 29.4928 14.3224 29.143C14.5081 28.6796 14.2952 28.1484 13.8467 27.9564Z" fill="#8D6847"/>
<path d="M13.6951 16.5021C12.3969 16.5021 11.1433 16.9492 10.1104 17.7713C9.63992 17.619 9.155 17.542 8.6627 17.542C5.95813 17.542 3.75781 19.8157 3.75781 22.6104C3.75781 23.112 4.15133 23.5186 4.63672 23.5186H18.7276C19.213 23.5186 19.6065 23.112 19.6065 22.6104C19.6065 19.2423 16.9547 16.5021 13.6951 16.5021ZM5.64055 21.7021C6.02176 20.3496 7.23231 19.3584 8.6627 19.3584C9.0957 19.3584 9.5218 19.4526 9.92914 19.6385C10.2501 19.7849 10.6245 19.7201 10.8818 19.4736C11.6592 18.7286 12.6584 18.3184 13.6952 18.3184C15.684 18.3184 17.3507 19.7703 17.7553 21.7021H5.64055Z" fill="#8D6847"/>
<path d="M44.7621 31.7558C44.2698 31.7558 43.7849 31.8327 43.3144 31.985C42.2815 31.1629 41.0279 30.7158 39.7298 30.7158C36.4702 30.7158 33.8184 33.456 33.8184 36.8241C33.8184 37.3257 34.2119 37.7323 34.6973 37.7323H48.7881C49.2735 37.7323 49.667 37.3257 49.667 36.8241C49.667 34.0294 47.4667 31.7558 44.7621 31.7558ZM35.6697 35.9159C36.0741 33.9841 37.741 32.5322 39.7298 32.5322C40.7665 32.5322 41.7657 32.9425 42.5432 33.6875C42.8005 33.9339 43.1747 33.9985 43.4957 33.8523C43.9031 33.6664 44.3291 33.5722 44.7621 33.5722C46.1925 33.5722 47.4031 34.5633 47.7844 35.9159H35.6697Z" fill="#8D6847"/>
</g>
<defs>
<clipPath id="clip0">
<rect width="60" height="62" fill="white"/>
</clipPath>
</defs>
</svg>
