<svg width="60" height="62" viewBox="0 0 60 62" fill="none" xmlns="http://www.w3.org/2000/svg">
<path d="M48.3655 40.9511V34.4968L45.7296 35.5566L45.7218 35.5386L45.659 35.4207C44.6489 33.7957 43.0154 32.665 41.176 32.3204L34.8332 31.1278V30.6105C37.2052 29.1872 38.9422 26.7591 39.4835 23.8885C41.2407 23.5129 42.5659 21.9019 42.5659 19.9762V10.1109C42.5659 7.32326 40.799 4.89216 38.2356 4.1011L37.7523 3.6017C35.504 1.27847 32.5154 0 29.3362 0C22.7741 0 17.4346 5.51642 17.4346 12.2983V19.9762C17.4346 21.9019 18.7598 23.5129 20.5171 23.8885C21.0594 26.7591 22.7953 29.1882 25.1674 30.6105V31.1278L18.8256 32.3194C16.9881 32.664 15.3555 33.7927 14.3445 35.4167L14.2865 35.5626L11.6351 34.4968V40.9511C10.0364 40.9511 8.73535 42.2955 8.73535 43.9475V47.9428C8.73535 49.5948 10.0364 50.9392 11.6351 50.9392V54.6188L30.0003 62L48.3655 54.6188V50.9392C49.9642 50.9392 51.2652 49.5948 51.2652 47.9428V43.9475C51.2652 42.2955 49.9642 40.9511 48.3655 40.9511ZM36.6446 33.499L40.8299 34.2851C42.0623 34.5168 43.1536 35.2519 43.8815 36.2987L34.5297 40.0562L36.6446 33.499ZM27.1827 31.5264C28.0748 31.808 29.0202 31.9619 30.0003 31.9619C30.9804 31.9619 31.9257 31.808 32.8179 31.5264L30.0003 33.7098L27.1827 31.5264ZM28.5291 35.0661L26.5563 37.1037L25.2766 33.1374L25.8923 33.0226L28.5291 35.0661ZM34.1083 33.0236L34.724 33.1384L33.4442 37.1047L31.4714 35.0671L34.1083 33.0236ZM39.6662 21.6961V18.2562C40.2413 18.6028 40.6328 19.24 40.6328 19.9762C40.6328 20.7123 40.2413 21.3495 39.6662 21.6961ZM20.3344 21.6961C19.7593 21.3495 19.3678 20.7123 19.3678 19.9762C19.3678 19.24 19.7593 18.6028 20.3344 18.2562V21.6961ZM20.3344 14.9821V16.1228C19.9903 16.2156 19.6675 16.3555 19.3678 16.5363V12.2983C19.3678 6.6191 23.8393 1.99762 29.3362 1.99762C31.9982 1.99762 34.5027 3.06934 36.3856 5.01501L37.2381 5.89696L37.4981 5.96288C39.3443 6.43931 40.6328 8.14528 40.6328 10.1109V16.5363C40.3331 16.3555 40.0103 16.2146 39.6662 16.1228V14.9821H36.6011C33.9817 14.9821 31.4782 13.6897 29.9075 11.5252L29.1391 10.4645L27.2185 12.4501C25.6371 14.0832 23.5358 14.9821 21.301 14.9821H20.3344ZM22.2676 21.9738V16.9338C24.6541 16.7051 26.8685 15.6353 28.5852 13.8625L28.9612 13.4739C30.8992 15.6843 33.6907 16.9797 36.6011 16.9797H37.733V21.9738C37.733 26.3795 34.2639 29.9642 30.0003 29.9642C25.7367 29.9642 22.2676 26.3795 22.2676 21.9738ZM19.1706 34.2851L23.356 33.499L25.4709 40.0562L16.1172 36.2977C16.845 35.2499 17.9382 34.5168 19.1706 34.2851ZM10.6685 47.9428V43.9475C10.6685 43.3962 11.1025 42.9487 11.6351 42.9487C13.2339 42.9487 14.5349 44.2931 14.5349 45.9452C14.5349 47.5972 13.2339 48.9416 11.6351 48.9416C11.1025 48.9416 10.6685 48.4941 10.6685 47.9428ZM29.0337 59.467L13.5683 53.2534V50.5157C15.2724 49.7426 16.4681 47.9877 16.4681 45.9452C16.4681 43.9026 15.2724 42.1477 13.5683 41.3746V37.4173L29.0337 43.6319V59.467ZM26.1639 40.3359L30.0003 36.3706L33.8367 40.3349L30.0003 41.877L26.1639 40.3359ZM46.4323 53.2524L30.9669 59.466V43.6319L46.4323 37.4173V41.3746C44.7282 42.1477 43.5325 43.9026 43.5325 45.9452C43.5325 47.9877 44.7282 49.7426 46.4323 50.5157V53.2524ZM49.3321 47.9428C49.3321 48.4941 48.8981 48.9416 48.3655 48.9416C46.7667 48.9416 45.4657 47.5972 45.4657 45.9452C45.4657 44.2931 46.7667 42.9487 48.3655 42.9487C48.8981 42.9487 49.3321 43.3962 49.3321 43.9475V47.9428Z" fill="#8D6847"/>
</svg>
